G04 #@! TF.GenerationSoftware,KiCad,Pcbnew,(6.0.9)*
G04 #@! TF.CreationDate,2023-02-21T15:57:59-05:00*
G04 #@! TF.ProjectId,Arduino-CMRI_SMD_v7_Nano,41726475-696e-46f2-9d43-4d52495f534d,rev?*
G04 #@! TF.SameCoordinates,Original*
G04 #@! TF.FileFunction,Legend,Bot*
G04 #@! TF.FilePolarity,Positive*
%FSLAX46Y46*%
G04 Gerber Fmt 4.6, Leading zero omitted, Abs format (unit mm)*
G04 Created by KiCad (PCBNEW (6.0.9)) date 2023-02-21 15:57:59*
%MOMM*%
%LPD*%
G01*
G04 APERTURE LIST*
%ADD10C,0.266700*%
G04 APERTURE END LIST*
D10*
X136402333Y-142364005D02*
X137122000Y-142364005D01*
X136258400Y-141932205D02*
X136762166Y-143443505D01*
X137265933Y-141932205D01*
X137769700Y-141932205D02*
X137769700Y-142939739D01*
X137769700Y-142651872D02*
X137841666Y-142795805D01*
X137913633Y-142867772D01*
X138057566Y-142939739D01*
X138201500Y-142939739D01*
X139352966Y-141932205D02*
X139352966Y-143443505D01*
X139352966Y-142004172D02*
X139209033Y-141932205D01*
X138921166Y-141932205D01*
X138777233Y-142004172D01*
X138705266Y-142076139D01*
X138633300Y-142220072D01*
X138633300Y-142651872D01*
X138705266Y-142795805D01*
X138777233Y-142867772D01*
X138921166Y-142939739D01*
X139209033Y-142939739D01*
X139352966Y-142867772D01*
X140720333Y-142939739D02*
X140720333Y-141932205D01*
X140072633Y-142939739D02*
X140072633Y-142148105D01*
X140144600Y-142004172D01*
X140288533Y-141932205D01*
X140504433Y-141932205D01*
X140648366Y-142004172D01*
X140720333Y-142076139D01*
X141440000Y-141932205D02*
X141440000Y-142939739D01*
X141440000Y-143443505D02*
X141368033Y-143371539D01*
X141440000Y-143299572D01*
X141511966Y-143371539D01*
X141440000Y-143443505D01*
X141440000Y-143299572D01*
X142159666Y-142939739D02*
X142159666Y-141932205D01*
X142159666Y-142795805D02*
X142231633Y-142867772D01*
X142375566Y-142939739D01*
X142591466Y-142939739D01*
X142735400Y-142867772D01*
X142807366Y-142723839D01*
X142807366Y-141932205D01*
X143742933Y-141932205D02*
X143599000Y-142004172D01*
X143527033Y-142076139D01*
X143455066Y-142220072D01*
X143455066Y-142651872D01*
X143527033Y-142795805D01*
X143599000Y-142867772D01*
X143742933Y-142939739D01*
X143958833Y-142939739D01*
X144102766Y-142867772D01*
X144174733Y-142795805D01*
X144246700Y-142651872D01*
X144246700Y-142220072D01*
X144174733Y-142076139D01*
X144102766Y-142004172D01*
X143958833Y-141932205D01*
X143742933Y-141932205D01*
X144894400Y-142507939D02*
X146045866Y-142507939D01*
X147629133Y-142076139D02*
X147557166Y-142004172D01*
X147341266Y-141932205D01*
X147197333Y-141932205D01*
X146981433Y-142004172D01*
X146837500Y-142148105D01*
X146765533Y-142292039D01*
X146693566Y-142579905D01*
X146693566Y-142795805D01*
X146765533Y-143083672D01*
X146837500Y-143227605D01*
X146981433Y-143371539D01*
X147197333Y-143443505D01*
X147341266Y-143443505D01*
X147557166Y-143371539D01*
X147629133Y-143299572D01*
X148276833Y-141932205D02*
X148276833Y-143443505D01*
X148780600Y-142364005D01*
X149284366Y-143443505D01*
X149284366Y-141932205D01*
X150867633Y-141932205D02*
X150363866Y-142651872D01*
X150004033Y-141932205D02*
X150004033Y-143443505D01*
X150579766Y-143443505D01*
X150723700Y-143371539D01*
X150795666Y-143299572D01*
X150867633Y-143155639D01*
X150867633Y-142939739D01*
X150795666Y-142795805D01*
X150723700Y-142723839D01*
X150579766Y-142651872D01*
X150004033Y-142651872D01*
X151515333Y-141932205D02*
X151515333Y-143443505D01*
X151875166Y-141788272D02*
X153026633Y-141788272D01*
X153314500Y-142004172D02*
X153530400Y-141932205D01*
X153890233Y-141932205D01*
X154034166Y-142004172D01*
X154106133Y-142076139D01*
X154178100Y-142220072D01*
X154178100Y-142364005D01*
X154106133Y-142507939D01*
X154034166Y-142579905D01*
X153890233Y-142651872D01*
X153602366Y-142723839D01*
X153458433Y-142795805D01*
X153386466Y-142867772D01*
X153314500Y-143011705D01*
X153314500Y-143155639D01*
X153386466Y-143299572D01*
X153458433Y-143371539D01*
X153602366Y-143443505D01*
X153962200Y-143443505D01*
X154178100Y-143371539D01*
X154825800Y-141932205D02*
X154825800Y-143443505D01*
X155329566Y-142364005D01*
X155833333Y-143443505D01*
X155833333Y-141932205D01*
X156553000Y-141932205D02*
X156553000Y-143443505D01*
X156912833Y-143443505D01*
X157128733Y-143371539D01*
X157272666Y-143227605D01*
X157344633Y-143083672D01*
X157416600Y-142795805D01*
X157416600Y-142579905D01*
X157344633Y-142292039D01*
X157272666Y-142148105D01*
X157128733Y-142004172D01*
X156912833Y-141932205D01*
X156553000Y-141932205D01*
X159071833Y-142939739D02*
X159431666Y-141932205D01*
X159791500Y-142939739D01*
X160223300Y-143443505D02*
X161230833Y-143443505D01*
X160583133Y-141932205D01*
X137337900Y-141010312D02*
X137337900Y-139930812D01*
X137265933Y-139714912D01*
X137122000Y-139570979D01*
X136906100Y-139499012D01*
X136762166Y-139499012D01*
X138057566Y-139499012D02*
X138057566Y-141010312D01*
X138561333Y-139930812D01*
X139065100Y-141010312D01*
X139065100Y-139499012D01*
X140648366Y-139499012D02*
X140144600Y-140218679D01*
X139784766Y-139499012D02*
X139784766Y-141010312D01*
X140360500Y-141010312D01*
X140504433Y-140938346D01*
X140576400Y-140866379D01*
X140648366Y-140722446D01*
X140648366Y-140506546D01*
X140576400Y-140362612D01*
X140504433Y-140290646D01*
X140360500Y-140218679D01*
X139784766Y-140218679D01*
X141296066Y-139499012D02*
X141296066Y-141010312D01*
X144030800Y-139642946D02*
X143958833Y-139570979D01*
X143742933Y-139499012D01*
X143599000Y-139499012D01*
X143383100Y-139570979D01*
X143239166Y-139714912D01*
X143167200Y-139858846D01*
X143095233Y-140146712D01*
X143095233Y-140362612D01*
X143167200Y-140650479D01*
X143239166Y-140794412D01*
X143383100Y-140938346D01*
X143599000Y-141010312D01*
X143742933Y-141010312D01*
X143958833Y-140938346D01*
X144030800Y-140866379D01*
X145758000Y-141082279D02*
X144462600Y-139139179D01*
X146261766Y-139499012D02*
X146261766Y-141010312D01*
X146765533Y-139930812D01*
X147269300Y-141010312D01*
X147269300Y-139499012D01*
X148852566Y-139499012D02*
X148348800Y-140218679D01*
X147988966Y-139499012D02*
X147988966Y-141010312D01*
X148564700Y-141010312D01*
X148708633Y-140938346D01*
X148780600Y-140866379D01*
X148852566Y-140722446D01*
X148852566Y-140506546D01*
X148780600Y-140362612D01*
X148708633Y-140290646D01*
X148564700Y-140218679D01*
X147988966Y-140218679D01*
X149500266Y-139499012D02*
X149500266Y-141010312D01*
X151947133Y-139570979D02*
X151803200Y-139499012D01*
X151515333Y-139499012D01*
X151371400Y-139570979D01*
X151299433Y-139714912D01*
X151299433Y-140290646D01*
X151371400Y-140434579D01*
X151515333Y-140506546D01*
X151803200Y-140506546D01*
X151947133Y-140434579D01*
X152019100Y-140290646D01*
X152019100Y-140146712D01*
X151299433Y-140002779D01*
X152666800Y-139499012D02*
X152666800Y-140506546D01*
X152666800Y-140362612D02*
X152738766Y-140434579D01*
X152882700Y-140506546D01*
X153098600Y-140506546D01*
X153242533Y-140434579D01*
X153314500Y-140290646D01*
X153314500Y-139499012D01*
X153314500Y-140290646D02*
X153386466Y-140434579D01*
X153530400Y-140506546D01*
X153746300Y-140506546D01*
X153890233Y-140434579D01*
X153962200Y-140290646D01*
X153962200Y-139499012D01*
X155329566Y-140506546D02*
X155329566Y-139499012D01*
X154681866Y-140506546D02*
X154681866Y-139714912D01*
X154753833Y-139570979D01*
X154897766Y-139499012D01*
X155113666Y-139499012D01*
X155257600Y-139570979D01*
X155329566Y-139642946D01*
X156265133Y-139499012D02*
X156121200Y-139570979D01*
X156049233Y-139714912D01*
X156049233Y-141010312D01*
X157488566Y-139499012D02*
X157488566Y-140290646D01*
X157416600Y-140434579D01*
X157272666Y-140506546D01*
X156984800Y-140506546D01*
X156840866Y-140434579D01*
X157488566Y-139570979D02*
X157344633Y-139499012D01*
X156984800Y-139499012D01*
X156840866Y-139570979D01*
X156768900Y-139714912D01*
X156768900Y-139858846D01*
X156840866Y-140002779D01*
X156984800Y-140074746D01*
X157344633Y-140074746D01*
X157488566Y-140146712D01*
X157992333Y-140506546D02*
X158568066Y-140506546D01*
X158208233Y-141010312D02*
X158208233Y-139714912D01*
X158280200Y-139570979D01*
X158424133Y-139499012D01*
X158568066Y-139499012D01*
X159287733Y-139499012D02*
X159143800Y-139570979D01*
X159071833Y-139642946D01*
X158999866Y-139786879D01*
X158999866Y-140218679D01*
X159071833Y-140362612D01*
X159143800Y-140434579D01*
X159287733Y-140506546D01*
X159503633Y-140506546D01*
X159647566Y-140434579D01*
X159719533Y-140362612D01*
X159791500Y-140218679D01*
X159791500Y-139786879D01*
X159719533Y-139642946D01*
X159647566Y-139570979D01*
X159503633Y-139499012D01*
X159287733Y-139499012D01*
X160439200Y-139499012D02*
X160439200Y-140506546D01*
X160439200Y-140218679D02*
X160511166Y-140362612D01*
X160583133Y-140434579D01*
X160727066Y-140506546D01*
X160871000Y-140506546D01*
X132911950Y-137065819D02*
X132911950Y-138577119D01*
X133559650Y-137065819D02*
X133559650Y-137857453D01*
X133487683Y-138001386D01*
X133343750Y-138073353D01*
X133127850Y-138073353D01*
X132983916Y-138001386D01*
X132911950Y-137929419D01*
X134063416Y-138073353D02*
X134639150Y-138073353D01*
X134279316Y-138577119D02*
X134279316Y-137281719D01*
X134351283Y-137137786D01*
X134495216Y-137065819D01*
X134639150Y-137065819D01*
X134927016Y-138073353D02*
X135502750Y-138073353D01*
X135142916Y-138577119D02*
X135142916Y-137281719D01*
X135214883Y-137137786D01*
X135358816Y-137065819D01*
X135502750Y-137065819D01*
X136006516Y-138073353D02*
X136006516Y-136562053D01*
X136006516Y-138001386D02*
X136150450Y-138073353D01*
X136438316Y-138073353D01*
X136582250Y-138001386D01*
X136654216Y-137929419D01*
X136726183Y-137785486D01*
X136726183Y-137353686D01*
X136654216Y-137209753D01*
X136582250Y-137137786D01*
X136438316Y-137065819D01*
X136150450Y-137065819D01*
X136006516Y-137137786D01*
X137301916Y-137137786D02*
X137445850Y-137065819D01*
X137733716Y-137065819D01*
X137877650Y-137137786D01*
X137949616Y-137281719D01*
X137949616Y-137353686D01*
X137877650Y-137497619D01*
X137733716Y-137569586D01*
X137517816Y-137569586D01*
X137373883Y-137641553D01*
X137301916Y-137785486D01*
X137301916Y-137857453D01*
X137373883Y-138001386D01*
X137517816Y-138073353D01*
X137733716Y-138073353D01*
X137877650Y-138001386D01*
X138597316Y-137209753D02*
X138669283Y-137137786D01*
X138597316Y-137065819D01*
X138525350Y-137137786D01*
X138597316Y-137209753D01*
X138597316Y-137065819D01*
X138597316Y-138001386D02*
X138669283Y-137929419D01*
X138597316Y-137857453D01*
X138525350Y-137929419D01*
X138597316Y-138001386D01*
X138597316Y-137857453D01*
X140396483Y-138649086D02*
X139101083Y-136705986D01*
X141979750Y-138649086D02*
X140684350Y-136705986D01*
X142267616Y-138073353D02*
X142843350Y-138073353D01*
X142483516Y-138577119D02*
X142483516Y-137281719D01*
X142555483Y-137137786D01*
X142699416Y-137065819D01*
X142843350Y-137065819D01*
X143347116Y-137065819D02*
X143347116Y-138073353D01*
X143347116Y-138577119D02*
X143275150Y-138505153D01*
X143347116Y-138433186D01*
X143419083Y-138505153D01*
X143347116Y-138577119D01*
X143347116Y-138433186D01*
X144066783Y-138073353D02*
X144066783Y-137065819D01*
X144066783Y-137929419D02*
X144138750Y-138001386D01*
X144282683Y-138073353D01*
X144498583Y-138073353D01*
X144642516Y-138001386D01*
X144714483Y-137857453D01*
X144714483Y-137065819D01*
X145290216Y-138073353D02*
X145650050Y-137065819D01*
X146009883Y-138073353D02*
X145650050Y-137065819D01*
X145506116Y-136705986D01*
X145434150Y-136634019D01*
X145290216Y-136562053D01*
X147233316Y-138073353D02*
X147233316Y-137065819D01*
X146585616Y-138073353D02*
X146585616Y-137281719D01*
X146657583Y-137137786D01*
X146801516Y-137065819D01*
X147017416Y-137065819D01*
X147161350Y-137137786D01*
X147233316Y-137209753D01*
X147952983Y-137065819D02*
X147952983Y-138073353D01*
X147952983Y-137785486D02*
X148024950Y-137929419D01*
X148096916Y-138001386D01*
X148240850Y-138073353D01*
X148384783Y-138073353D01*
X149104450Y-137065819D02*
X148960516Y-137137786D01*
X148888550Y-137281719D01*
X148888550Y-138577119D01*
X149680183Y-137209753D02*
X149752150Y-137137786D01*
X149680183Y-137065819D01*
X149608216Y-137137786D01*
X149680183Y-137209753D01*
X149680183Y-137065819D01*
X151047550Y-137137786D02*
X150903616Y-137065819D01*
X150615750Y-137065819D01*
X150471816Y-137137786D01*
X150399850Y-137209753D01*
X150327883Y-137353686D01*
X150327883Y-137785486D01*
X150399850Y-137929419D01*
X150471816Y-138001386D01*
X150615750Y-138073353D01*
X150903616Y-138073353D01*
X151047550Y-138001386D01*
X151911150Y-137065819D02*
X151767216Y-137137786D01*
X151695250Y-137209753D01*
X151623283Y-137353686D01*
X151623283Y-137785486D01*
X151695250Y-137929419D01*
X151767216Y-138001386D01*
X151911150Y-138073353D01*
X152127050Y-138073353D01*
X152270983Y-138001386D01*
X152342950Y-137929419D01*
X152414916Y-137785486D01*
X152414916Y-137353686D01*
X152342950Y-137209753D01*
X152270983Y-137137786D01*
X152127050Y-137065819D01*
X151911150Y-137065819D01*
X153062616Y-137065819D02*
X153062616Y-138073353D01*
X153062616Y-137929419D02*
X153134583Y-138001386D01*
X153278516Y-138073353D01*
X153494416Y-138073353D01*
X153638350Y-138001386D01*
X153710316Y-137857453D01*
X153710316Y-137065819D01*
X153710316Y-137857453D02*
X153782283Y-138001386D01*
X153926216Y-138073353D01*
X154142116Y-138073353D01*
X154286050Y-138001386D01*
X154358016Y-137857453D01*
X154358016Y-137065819D01*
X156157183Y-138649086D02*
X154861783Y-136705986D01*
X156517016Y-138073353D02*
X156876850Y-137065819D01*
X157236683Y-138073353D01*
X157740450Y-137137786D02*
X157884383Y-137065819D01*
X158172250Y-137065819D01*
X158316183Y-137137786D01*
X158388150Y-137281719D01*
X158388150Y-137353686D01*
X158316183Y-137497619D01*
X158172250Y-137569586D01*
X157956350Y-137569586D01*
X157812416Y-137641553D01*
X157740450Y-137785486D01*
X157740450Y-137857453D01*
X157812416Y-138001386D01*
X157956350Y-138073353D01*
X158172250Y-138073353D01*
X158316183Y-138001386D01*
X158891916Y-138073353D02*
X159251750Y-137065819D01*
X159611583Y-138073353D02*
X159251750Y-137065819D01*
X159107816Y-136705986D01*
X159035850Y-136634019D01*
X158891916Y-136562053D01*
X160835016Y-138073353D02*
X160835016Y-137065819D01*
X160475183Y-138649086D02*
X160115350Y-137569586D01*
X161050916Y-137569586D01*
X161626650Y-138073353D02*
X161626650Y-136777953D01*
X161554683Y-136634019D01*
X161410750Y-136562053D01*
X161338783Y-136562053D01*
X161626650Y-138577119D02*
X161554683Y-138505153D01*
X161626650Y-138433186D01*
X161698616Y-138505153D01*
X161626650Y-138577119D01*
X161626650Y-138433186D01*
X162202383Y-138073353D02*
X162490250Y-137065819D01*
X162778116Y-137785486D01*
X163065983Y-137065819D01*
X163353850Y-138073353D01*
X163785650Y-138577119D02*
X164721216Y-138577119D01*
X164217450Y-138001386D01*
X164433350Y-138001386D01*
X164577283Y-137929419D01*
X164649250Y-137857453D01*
X164721216Y-137713519D01*
X164721216Y-137353686D01*
X164649250Y-137209753D01*
X164577283Y-137137786D01*
X164433350Y-137065819D01*
X164001550Y-137065819D01*
X163857616Y-137137786D01*
X163785650Y-137209753D01*
X133559650Y-135999993D02*
X133631616Y-136071960D01*
X133775550Y-136143926D01*
X134135383Y-136143926D01*
X134279316Y-136071960D01*
X134351283Y-135999993D01*
X134423250Y-135856060D01*
X134423250Y-135712126D01*
X134351283Y-135496226D01*
X133487683Y-134632626D01*
X134423250Y-134632626D01*
X134998983Y-135999993D02*
X135070950Y-136071960D01*
X135214883Y-136143926D01*
X135574716Y-136143926D01*
X135718650Y-136071960D01*
X135790616Y-135999993D01*
X135862583Y-135856060D01*
X135862583Y-135712126D01*
X135790616Y-135496226D01*
X134927016Y-134632626D01*
X135862583Y-134632626D01*
X137589783Y-136215893D02*
X136294383Y-134272793D01*
X138381416Y-136143926D02*
X138525350Y-136143926D01*
X138669283Y-136071960D01*
X138741250Y-135999993D01*
X138813216Y-135856060D01*
X138885183Y-135568193D01*
X138885183Y-135208360D01*
X138813216Y-134920493D01*
X138741250Y-134776560D01*
X138669283Y-134704593D01*
X138525350Y-134632626D01*
X138381416Y-134632626D01*
X138237483Y-134704593D01*
X138165516Y-134776560D01*
X138093550Y-134920493D01*
X138021583Y-135208360D01*
X138021583Y-135568193D01*
X138093550Y-135856060D01*
X138165516Y-135999993D01*
X138237483Y-136071960D01*
X138381416Y-136143926D01*
X140180583Y-135640160D02*
X140180583Y-134632626D01*
X139820750Y-136215893D02*
X139460916Y-135136393D01*
X140396483Y-135136393D01*
X142051716Y-136215893D02*
X140756316Y-134272793D01*
X142483516Y-135999993D02*
X142555483Y-136071960D01*
X142699416Y-136143926D01*
X143059250Y-136143926D01*
X143203183Y-136071960D01*
X143275150Y-135999993D01*
X143347116Y-135856060D01*
X143347116Y-135712126D01*
X143275150Y-135496226D01*
X142411550Y-134632626D01*
X143347116Y-134632626D01*
X144282683Y-136143926D02*
X144426616Y-136143926D01*
X144570550Y-136071960D01*
X144642516Y-135999993D01*
X144714483Y-135856060D01*
X144786450Y-135568193D01*
X144786450Y-135208360D01*
X144714483Y-134920493D01*
X144642516Y-134776560D01*
X144570550Y-134704593D01*
X144426616Y-134632626D01*
X144282683Y-134632626D01*
X144138750Y-134704593D01*
X144066783Y-134776560D01*
X143994816Y-134920493D01*
X143922850Y-135208360D01*
X143922850Y-135568193D01*
X143994816Y-135856060D01*
X144066783Y-135999993D01*
X144138750Y-136071960D01*
X144282683Y-136143926D01*
X145362183Y-135999993D02*
X145434150Y-136071960D01*
X145578083Y-136143926D01*
X145937916Y-136143926D01*
X146081850Y-136071960D01*
X146153816Y-135999993D01*
X146225783Y-135856060D01*
X146225783Y-135712126D01*
X146153816Y-135496226D01*
X145290216Y-134632626D01*
X146225783Y-134632626D01*
X146801516Y-135999993D02*
X146873483Y-136071960D01*
X147017416Y-136143926D01*
X147377250Y-136143926D01*
X147521183Y-136071960D01*
X147593150Y-135999993D01*
X147665116Y-135856060D01*
X147665116Y-135712126D01*
X147593150Y-135496226D01*
X146729550Y-134632626D01*
X147665116Y-134632626D01*
X150615750Y-135424260D02*
X151119516Y-135424260D01*
X151335416Y-134632626D02*
X150615750Y-134632626D01*
X150615750Y-136143926D01*
X151335416Y-136143926D01*
X151983116Y-134632626D02*
X151983116Y-135640160D01*
X151983116Y-135352293D02*
X152055083Y-135496226D01*
X152127050Y-135568193D01*
X152270983Y-135640160D01*
X152414916Y-135640160D01*
X152918683Y-134632626D02*
X152918683Y-135640160D01*
X152918683Y-136143926D02*
X152846716Y-136071960D01*
X152918683Y-135999993D01*
X152990650Y-136071960D01*
X152918683Y-136143926D01*
X152918683Y-135999993D01*
X153638350Y-134632626D02*
X153638350Y-136143926D01*
X153782283Y-135208360D02*
X154214083Y-134632626D01*
X154214083Y-135640160D02*
X153638350Y-135064426D01*
X155941283Y-135064426D02*
X156660950Y-135064426D01*
X155797350Y-134632626D02*
X156301116Y-136143926D01*
X156804883Y-134632626D01*
X157308650Y-134632626D02*
X157308650Y-135640160D01*
X157308650Y-135352293D02*
X157380616Y-135496226D01*
X157452583Y-135568193D01*
X157596516Y-135640160D01*
X157740450Y-135640160D01*
X158891916Y-134704593D02*
X158747983Y-134632626D01*
X158460116Y-134632626D01*
X158316183Y-134704593D01*
X158244216Y-134776560D01*
X158172250Y-134920493D01*
X158172250Y-135352293D01*
X158244216Y-135496226D01*
X158316183Y-135568193D01*
X158460116Y-135640160D01*
X158747983Y-135640160D01*
X158891916Y-135568193D01*
X159539616Y-134632626D02*
X159539616Y-136143926D01*
X159683550Y-135208360D02*
X160115350Y-134632626D01*
X160115350Y-135640160D02*
X159539616Y-135064426D01*
X161338783Y-134704593D02*
X161194850Y-134632626D01*
X160906983Y-134632626D01*
X160763050Y-134704593D01*
X160691083Y-134848526D01*
X160691083Y-135424260D01*
X160763050Y-135568193D01*
X160906983Y-135640160D01*
X161194850Y-135640160D01*
X161338783Y-135568193D01*
X161410750Y-135424260D01*
X161410750Y-135280326D01*
X160691083Y-135136393D01*
X162058450Y-135640160D02*
X162058450Y-134632626D01*
X162058450Y-135496226D02*
X162130416Y-135568193D01*
X162274350Y-135640160D01*
X162490250Y-135640160D01*
X162634183Y-135568193D01*
X162706150Y-135424260D01*
X162706150Y-134632626D01*
X163353850Y-134704593D02*
X163497783Y-134632626D01*
X163785650Y-134632626D01*
X163929583Y-134704593D01*
X164001550Y-134848526D01*
X164001550Y-134920493D01*
X163929583Y-135064426D01*
X163785650Y-135136393D01*
X163569750Y-135136393D01*
X163425816Y-135208360D01*
X163353850Y-135352293D01*
X163353850Y-135424260D01*
X163425816Y-135568193D01*
X163569750Y-135640160D01*
X163785650Y-135640160D01*
X163929583Y-135568193D01*
M02*
