M48
METRIC,TZ
T1C0.305
T2C0.800
T3C0.900
T4C1.194
%
G90
G05
T1
X114491Y-132934
X115443Y-118011
X115443Y-123726
X117983Y-95786
X118936Y-100231
X119253Y-127536
X119571Y-108169
X121158Y-112296
X123381Y-127536
X124016Y-129441
X125286Y-106264
X125603Y-126266
X126556Y-92929
X127191Y-109756
X128461Y-74196
X128778Y-124996
X129096Y-79594
X129096Y-92929
X129096Y-104676
X129731Y-78959
X129731Y-89754
X130048Y-109756
X130683Y-111661
X131636Y-79276
X132271Y-78641
X132906Y-92929
X133541Y-73244
X133541Y-76736
X133541Y-106581
X134811Y-78641
X134811Y-121821
X136081Y-77689
X136081Y-128806
X136081Y-131664
X136716Y-119916
X137033Y-76736
X137351Y-79276
X138303Y-77054
X139573Y-74196
X139573Y-80864
X140843Y-76736
X140843Y-128806
X141161Y-78006
X141796Y-128806
X143383Y-92929
X143383Y-128171
X146558Y-124996
X146876Y-129441
X147511Y-79276
X148781Y-79276
X149416Y-129441
X150051Y-79276
X150368Y-89119
X151321Y-73244
X151321Y-79276
X151321Y-122139
X152908Y-128806
X153226Y-78959
X153861Y-105629
X154178Y-78006
X156401Y-77689
X156401Y-131346
X157353Y-110709
X157671Y-131346
X157988Y-91024
X158623Y-94199
X158941Y-111661
X159258Y-80864
X159576Y-89119
X160211Y-118646
X161163Y-131346
X163386Y-91659
X166561Y-73561
X166878Y-131346
X167831Y-73561
X168466Y-96104
X169101Y-122139
X169736Y-128489
X170371Y-105946
X170688Y-129441
X171006Y-92929
X171323Y-126266
X171641Y-89754
X171641Y-106264
X172276Y-95469
X174181Y-104994
X174816Y-127219
X174816Y-128171
X176403Y-94199
X177673Y-97374
X177673Y-113884
X177673Y-119916
X178308Y-94199
X180213Y-134521
X184023Y-112614
X184023Y-118646
T2
X140526Y-85626
X140526Y-88166
X140526Y-90706
X140526Y-93246
X140526Y-95786
X140526Y-98326
X140526Y-100866
X140526Y-103406
X140526Y-105946
X140526Y-108486
X140526Y-111026
X140526Y-113566
X140526Y-116106
X140526Y-118646
X140526Y-121186
X155766Y-85626
X155766Y-88166
X155766Y-90706
X155766Y-93246
X155766Y-95786
X155766Y-98326
X155766Y-100866
X155766Y-103406
X155766Y-105946
X155766Y-108486
X155766Y-111026
X155766Y-113566
X155766Y-116106
X155766Y-118646
X155766Y-121186
T3
X106744Y-63909
X107506Y-77625
X107506Y-81181
X107506Y-84610
X107506Y-88166
X107506Y-91595
X107506Y-95151
X107506Y-98580
X107506Y-102136
X107506Y-105565
X107506Y-109121
X107506Y-112550
X107506Y-116106
X107506Y-119535
X107506Y-123091
X107506Y-126520
X107506Y-130076
X108141Y-145951
X110300Y-63909
X111697Y-145951
X113729Y-63909
X115126Y-145951
X117285Y-63909
X118682Y-145951
X120714Y-63909
X122111Y-145951
X124270Y-63909
X125667Y-145951
X127699Y-63909
X129096Y-145951
X131255Y-63909
X132652Y-145951
X134684Y-63909
X136081Y-145951
X138240Y-63909
X139637Y-145951
X141669Y-63909
X143066Y-145951
X145225Y-63909
X146622Y-145951
X148654Y-63909
X150051Y-145951
X152210Y-63909
X153607Y-145951
X155639Y-63909
X157036Y-145951
X159195Y-63909
X160592Y-145951
X164021Y-67211
X164021Y-145951
X167577Y-67211
X167577Y-145951
X171006Y-145951
X171260Y-67211
X174562Y-145951
X174816Y-67211
X177991Y-145951
X181547Y-145951
X184976Y-145951
X188532Y-145951
X188786Y-78006
X188786Y-81562
X188786Y-84991
X188786Y-88547
X188786Y-91976
X188786Y-95532
X188786Y-98961
X188786Y-102517
X188786Y-105946
X188786Y-109502
X188786Y-112931
X188786Y-116487
X188786Y-119916
X188786Y-123472
X188786Y-126901
X188786Y-130457
T4
X179261Y-66576
X184341Y-66576
X189421Y-66576
X194501Y-66576
T0
M30
