G04 #@! TF.GenerationSoftware,KiCad,Pcbnew,(6.0.9)*
G04 #@! TF.CreationDate,2023-02-21T15:57:59-05:00*
G04 #@! TF.ProjectId,Arduino-CMRI_SMD_v7_Nano,41726475-696e-46f2-9d43-4d52495f534d,rev?*
G04 #@! TF.SameCoordinates,Original*
G04 #@! TF.FileFunction,Copper,L1,Top*
G04 #@! TF.FilePolarity,Positive*
%FSLAX46Y46*%
G04 Gerber Fmt 4.6, Leading zero omitted, Abs format (unit mm)*
G04 Created by KiCad (PCBNEW (6.0.9)) date 2023-02-21 15:57:59*
%MOMM*%
%LPD*%
G01*
G04 APERTURE LIST*
G04 #@! TA.AperFunction,SMDPad,CuDef*
%ADD10R,1.800000X1.600000*%
G04 #@! TD*
G04 #@! TA.AperFunction,SMDPad,CuDef*
%ADD11R,1.200000X1.800000*%
G04 #@! TD*
G04 #@! TA.AperFunction,ComponentPad*
%ADD12C,1.350000*%
G04 #@! TD*
G04 #@! TA.AperFunction,SMDPad,CuDef*
%ADD13R,0.800000X0.800000*%
G04 #@! TD*
G04 #@! TA.AperFunction,SMDPad,CuDef*
%ADD14R,0.600000X2.200000*%
G04 #@! TD*
G04 #@! TA.AperFunction,SMDPad,CuDef*
%ADD15R,0.660400X2.032000*%
G04 #@! TD*
G04 #@! TA.AperFunction,SMDPad,CuDef*
%ADD16R,1.800000X1.200000*%
G04 #@! TD*
G04 #@! TA.AperFunction,ComponentPad*
%ADD17R,1.200000X1.200000*%
G04 #@! TD*
G04 #@! TA.AperFunction,ComponentPad*
%ADD18C,1.200000*%
G04 #@! TD*
G04 #@! TA.AperFunction,ComponentPad*
%ADD19C,1.790700*%
G04 #@! TD*
G04 #@! TA.AperFunction,SMDPad,CuDef*
%ADD20R,2.032000X0.660400*%
G04 #@! TD*
G04 #@! TA.AperFunction,ViaPad*
%ADD21C,0.609600*%
G04 #@! TD*
G04 #@! TA.AperFunction,Conductor*
%ADD22C,0.609600*%
G04 #@! TD*
G04 #@! TA.AperFunction,Conductor*
%ADD23C,0.152400*%
G04 #@! TD*
G04 APERTURE END LIST*
D10*
G04 #@! TO.P,C7,1*
G04 #@! TO.N,GND*
X119570600Y-95916100D03*
G04 #@! TO.P,C7,2*
G04 #@! TO.N,VCC*
X119570600Y-93116100D03*
G04 #@! TD*
D11*
G04 #@! TO.P,R14,1*
G04 #@! TO.N,N$23*
X143065600Y-138560100D03*
G04 #@! TO.P,R14,2*
G04 #@! TO.N,VCC*
X143065600Y-135562100D03*
G04 #@! TD*
G04 #@! TO.P,R11,1*
G04 #@! TO.N,N$29*
X153606600Y-138560100D03*
G04 #@! TO.P,R11,2*
G04 #@! TO.N,VCC*
X153606600Y-135562100D03*
G04 #@! TD*
D10*
G04 #@! TO.P,C6,1*
G04 #@! TO.N,GND*
X160210600Y-79406100D03*
G04 #@! TO.P,C6,2*
G04 #@! TO.N,VCC*
X160210600Y-76606100D03*
G04 #@! TD*
D12*
G04 #@! TO.P,X15,P$1*
G04 #@! TO.N,N$65*
X148653600Y-63909100D03*
G04 #@! TO.P,X15,P$2*
G04 #@! TO.N,N$66*
X152209600Y-63909100D03*
G04 #@! TD*
D10*
G04 #@! TO.P,C5,1*
G04 #@! TO.N,GND*
X162750600Y-112426100D03*
G04 #@! TO.P,C5,2*
G04 #@! TO.N,VCC*
X162750600Y-109626100D03*
G04 #@! TD*
D12*
G04 #@! TO.P,X24,P$1*
G04 #@! TO.N,N$85*
X188785600Y-126901100D03*
G04 #@! TO.P,X24,P$2*
G04 #@! TO.N,N$86*
X188785600Y-130457100D03*
G04 #@! TD*
G04 #@! TO.P,X11,P$1*
G04 #@! TO.N,N$52*
X120713600Y-63909100D03*
G04 #@! TO.P,X11,P$2*
G04 #@! TO.N,N$53*
X124269600Y-63909100D03*
G04 #@! TD*
D10*
G04 #@! TO.P,C4,1*
G04 #@! TO.N,GND*
X162750600Y-95916100D03*
G04 #@! TO.P,C4,2*
G04 #@! TO.N,VCC*
X162750600Y-93116100D03*
G04 #@! TD*
D12*
G04 #@! TO.P,X34,P$1*
G04 #@! TO.N,N$39*
X171005600Y-145951100D03*
G04 #@! TO.P,X34,P$2*
G04 #@! TO.N,N$41*
X174561600Y-145951100D03*
G04 #@! TD*
G04 #@! TO.P,X1,P$1*
G04 #@! TO.N,N$14*
X107505600Y-130076100D03*
G04 #@! TO.P,X1,P$2*
G04 #@! TO.N,N$16*
X107505600Y-126520100D03*
G04 #@! TD*
G04 #@! TO.P,X33,P$1*
G04 #@! TO.N,N$35*
X164020600Y-145951100D03*
G04 #@! TO.P,X33,P$2*
G04 #@! TO.N,N$37*
X167576600Y-145951100D03*
G04 #@! TD*
D13*
G04 #@! TO.P,U$1,A*
G04 #@! TO.N,TX*
X167195600Y-86146100D03*
G04 #@! TO.P,U$1,C*
G04 #@! TO.N,N$17*
X167195600Y-87646100D03*
G04 #@! TD*
D14*
G04 #@! TO.P,IC2,1*
G04 #@! TO.N,RX*
X165290600Y-80606100D03*
G04 #@! TO.P,IC2,2*
G04 #@! TO.N,D2*
X166560600Y-80606100D03*
G04 #@! TO.P,IC2,3*
X167830600Y-80606100D03*
G04 #@! TO.P,IC2,4*
G04 #@! TO.N,TX*
X169100600Y-80606100D03*
G04 #@! TO.P,IC2,5*
G04 #@! TO.N,GND*
X169100600Y-75406100D03*
G04 #@! TO.P,IC2,6*
G04 #@! TO.N,A*
X167830600Y-75406100D03*
G04 #@! TO.P,IC2,7*
G04 #@! TO.N,B*
X166560600Y-75406100D03*
G04 #@! TO.P,IC2,8*
G04 #@! TO.N,VCC*
X165290600Y-75406100D03*
G04 #@! TD*
D12*
G04 #@! TO.P,X40,P$1*
G04 #@! TO.N,B*
X164020600Y-67211100D03*
G04 #@! TO.P,X40,P$2*
X167576600Y-67211100D03*
G04 #@! TD*
D15*
G04 #@! TO.P,IC8,1*
G04 #@! TO.N,N$48*
X129730600Y-81079500D03*
G04 #@! TO.P,IC8,2*
G04 #@! TO.N,N$49*
X131000600Y-81079500D03*
G04 #@! TO.P,IC8,3*
G04 #@! TO.N,N$50*
X132270600Y-81079500D03*
G04 #@! TO.P,IC8,4*
G04 #@! TO.N,N$52*
X133540600Y-81079500D03*
G04 #@! TO.P,IC8,5*
G04 #@! TO.N,N$53*
X134810600Y-81079500D03*
G04 #@! TO.P,IC8,6*
G04 #@! TO.N,N$59*
X136080600Y-81079500D03*
G04 #@! TO.P,IC8,7*
G04 #@! TO.N,N$60*
X137350600Y-81079500D03*
G04 #@! TO.P,IC8,8*
G04 #@! TO.N,GND*
X138620600Y-81079500D03*
G04 #@! TO.P,IC8,9*
G04 #@! TO.N,N$51*
X138620600Y-74932700D03*
G04 #@! TO.P,IC8,10*
G04 #@! TO.N,VCC*
X137350600Y-74932700D03*
G04 #@! TO.P,IC8,11*
G04 #@! TO.N,D8*
X136080600Y-74932700D03*
G04 #@! TO.P,IC8,12*
G04 #@! TO.N,D6*
X134810600Y-74932700D03*
G04 #@! TO.P,IC8,13*
G04 #@! TO.N,GND*
X133540600Y-74932700D03*
G04 #@! TO.P,IC8,14*
G04 #@! TO.N,N$10*
X132270600Y-74932700D03*
G04 #@! TO.P,IC8,15*
G04 #@! TO.N,N$46*
X131000600Y-74932700D03*
G04 #@! TO.P,IC8,16*
G04 #@! TO.N,VCC*
X129730600Y-74932700D03*
G04 #@! TD*
D10*
G04 #@! TO.P,C2,1*
G04 #@! TO.N,GND*
X136080600Y-123596100D03*
G04 #@! TO.P,C2,2*
G04 #@! TO.N,VCC*
X136080600Y-126396100D03*
G04 #@! TD*
D16*
G04 #@! TO.P,R26,1*
G04 #@! TO.N,GND*
X146646600Y-112296100D03*
G04 #@! TO.P,R26,2*
G04 #@! TO.N,N$54*
X149644600Y-112296100D03*
G04 #@! TD*
D17*
G04 #@! TO.P,ARDUINO_NANO1,1*
G04 #@! TO.N,D13*
X155765600Y-121186100D03*
D18*
G04 #@! TO.P,ARDUINO_NANO1,2*
G04 #@! TO.N,N/C*
X155765600Y-118646100D03*
G04 #@! TO.P,ARDUINO_NANO1,3*
X155765600Y-116106100D03*
G04 #@! TO.P,ARDUINO_NANO1,4*
X155765600Y-113566100D03*
G04 #@! TO.P,ARDUINO_NANO1,5*
X155765600Y-111026100D03*
G04 #@! TO.P,ARDUINO_NANO1,6*
X155765600Y-108486100D03*
G04 #@! TO.P,ARDUINO_NANO1,7*
X155765600Y-105946100D03*
G04 #@! TO.P,ARDUINO_NANO1,8*
X155765600Y-103406100D03*
G04 #@! TO.P,ARDUINO_NANO1,9*
X155765600Y-100866100D03*
G04 #@! TO.P,ARDUINO_NANO1,10*
X155765600Y-98326100D03*
G04 #@! TO.P,ARDUINO_NANO1,11*
X155765600Y-95786100D03*
G04 #@! TO.P,ARDUINO_NANO1,12*
G04 #@! TO.N,VCC*
X155765600Y-93246100D03*
G04 #@! TO.P,ARDUINO_NANO1,13*
G04 #@! TO.N,N/C*
X155765600Y-90706100D03*
G04 #@! TO.P,ARDUINO_NANO1,14*
G04 #@! TO.N,GND*
X155765600Y-88166100D03*
G04 #@! TO.P,ARDUINO_NANO1,15*
G04 #@! TO.N,VIN*
X155765600Y-85626100D03*
G04 #@! TO.P,ARDUINO_NANO1,16*
G04 #@! TO.N,TX*
X140525600Y-85626100D03*
G04 #@! TO.P,ARDUINO_NANO1,17*
G04 #@! TO.N,RX*
X140525600Y-88166100D03*
G04 #@! TO.P,ARDUINO_NANO1,18*
G04 #@! TO.N,N/C*
X140525600Y-90706100D03*
G04 #@! TO.P,ARDUINO_NANO1,19*
G04 #@! TO.N,GND*
X140525600Y-93246100D03*
G04 #@! TO.P,ARDUINO_NANO1,20*
G04 #@! TO.N,D2*
X140525600Y-95786100D03*
G04 #@! TO.P,ARDUINO_NANO1,21*
G04 #@! TO.N,D3*
X140525600Y-98326100D03*
G04 #@! TO.P,ARDUINO_NANO1,22*
G04 #@! TO.N,N/C*
X140525600Y-100866100D03*
G04 #@! TO.P,ARDUINO_NANO1,23*
X140525600Y-103406100D03*
G04 #@! TO.P,ARDUINO_NANO1,24*
G04 #@! TO.N,D6*
X140525600Y-105946100D03*
G04 #@! TO.P,ARDUINO_NANO1,25*
G04 #@! TO.N,D7*
X140525600Y-108486100D03*
G04 #@! TO.P,ARDUINO_NANO1,26*
G04 #@! TO.N,D8*
X140525600Y-111026100D03*
G04 #@! TO.P,ARDUINO_NANO1,27*
G04 #@! TO.N,D9*
X140525600Y-113566100D03*
G04 #@! TO.P,ARDUINO_NANO1,28*
G04 #@! TO.N,N/C*
X140525600Y-116106100D03*
G04 #@! TO.P,ARDUINO_NANO1,29*
X140525600Y-118646100D03*
G04 #@! TO.P,ARDUINO_NANO1,30*
G04 #@! TO.N,D12*
X140525600Y-121186100D03*
G04 #@! TD*
D11*
G04 #@! TO.P,R24,1*
G04 #@! TO.N,N$1*
X108140600Y-138560100D03*
G04 #@! TO.P,R24,2*
G04 #@! TO.N,VCC*
X108140600Y-135562100D03*
G04 #@! TD*
G04 #@! TO.P,R22,1*
G04 #@! TO.N,N$5*
X115125600Y-138560100D03*
G04 #@! TO.P,R22,2*
G04 #@! TO.N,VCC*
X115125600Y-135562100D03*
G04 #@! TD*
D12*
G04 #@! TO.P,X19,P$1*
G04 #@! TO.N,N$75*
X188785600Y-91976100D03*
G04 #@! TO.P,X19,P$2*
G04 #@! TO.N,N$76*
X188785600Y-95532100D03*
G04 #@! TD*
G04 #@! TO.P,X39,P$1*
G04 #@! TO.N,A*
X171259600Y-67211100D03*
G04 #@! TO.P,X39,P$2*
X174815600Y-67211100D03*
G04 #@! TD*
G04 #@! TO.P,X7,P$1*
G04 #@! TO.N,N$38*
X107505600Y-88166100D03*
G04 #@! TO.P,X7,P$2*
G04 #@! TO.N,N$40*
X107505600Y-84610100D03*
G04 #@! TD*
D11*
G04 #@! TO.P,R12,1*
G04 #@! TO.N,N$27*
X150050600Y-138560100D03*
G04 #@! TO.P,R12,2*
G04 #@! TO.N,VCC*
X150050600Y-135562100D03*
G04 #@! TD*
G04 #@! TO.P,R1,1*
G04 #@! TO.N,N$57*
X188531600Y-138560100D03*
G04 #@! TO.P,R1,2*
G04 #@! TO.N,VCC*
X188531600Y-135562100D03*
G04 #@! TD*
D16*
G04 #@! TO.P,R27,1*
G04 #@! TO.N,GND*
X146646600Y-102136100D03*
G04 #@! TO.P,R27,2*
G04 #@! TO.N,N$58*
X149644600Y-102136100D03*
G04 #@! TD*
D12*
G04 #@! TO.P,X31,P$1*
G04 #@! TO.N,N$27*
X150050600Y-145951100D03*
G04 #@! TO.P,X31,P$2*
G04 #@! TO.N,N$29*
X153606600Y-145951100D03*
G04 #@! TD*
G04 #@! TO.P,X16,P$1*
G04 #@! TO.N,N$67*
X155638600Y-63909100D03*
G04 #@! TO.P,X16,P$2*
G04 #@! TO.N,N$69*
X159194600Y-63909100D03*
G04 #@! TD*
D10*
G04 #@! TO.P,C9,1*
G04 #@! TO.N,GND*
X119570600Y-109626100D03*
G04 #@! TO.P,C9,2*
G04 #@! TO.N,VCC*
X119570600Y-112426100D03*
G04 #@! TD*
D12*
G04 #@! TO.P,X28,P$1*
G04 #@! TO.N,N$13*
X129095600Y-145951100D03*
G04 #@! TO.P,X28,P$2*
G04 #@! TO.N,N$15*
X132651600Y-145951100D03*
G04 #@! TD*
G04 #@! TO.P,X9,P$1*
G04 #@! TO.N,N$46*
X106743600Y-63909100D03*
G04 #@! TO.P,X9,P$2*
G04 #@! TO.N,N$48*
X110299600Y-63909100D03*
G04 #@! TD*
D10*
G04 #@! TO.P,C3,1*
G04 #@! TO.N,GND*
X117030600Y-123596100D03*
G04 #@! TO.P,C3,2*
G04 #@! TO.N,VCC*
X117030600Y-126396100D03*
G04 #@! TD*
D12*
G04 #@! TO.P,X5,P$1*
G04 #@! TO.N,N$30*
X107505600Y-102136100D03*
G04 #@! TO.P,X5,P$2*
G04 #@! TO.N,N$32*
X107505600Y-98580100D03*
G04 #@! TD*
G04 #@! TO.P,X25,P$1*
G04 #@! TO.N,N$1*
X108140600Y-145951100D03*
G04 #@! TO.P,X25,P$2*
G04 #@! TO.N,N$3*
X111696600Y-145951100D03*
G04 #@! TD*
D11*
G04 #@! TO.P,R20,1*
G04 #@! TO.N,N$9*
X122110600Y-138560100D03*
G04 #@! TO.P,R20,2*
G04 #@! TO.N,VCC*
X122110600Y-135562100D03*
G04 #@! TD*
G04 #@! TO.P,R19,1*
G04 #@! TO.N,N$11*
X125666600Y-138560100D03*
G04 #@! TO.P,R19,2*
G04 #@! TO.N,VCC*
X125666600Y-135562100D03*
G04 #@! TD*
G04 #@! TO.P,R4,1*
G04 #@! TO.N,N$43*
X177990600Y-138560100D03*
G04 #@! TO.P,R4,2*
G04 #@! TO.N,VCC*
X177990600Y-135562100D03*
G04 #@! TD*
D12*
G04 #@! TO.P,X6,P$1*
G04 #@! TO.N,N$34*
X107505600Y-95151100D03*
G04 #@! TO.P,X6,P$2*
G04 #@! TO.N,N$36*
X107505600Y-91595100D03*
G04 #@! TD*
D16*
G04 #@! TO.P,R25,1*
G04 #@! TO.N,GND*
X146646600Y-114836100D03*
G04 #@! TO.P,R25,2*
G04 #@! TO.N,N$17*
X149644600Y-114836100D03*
G04 #@! TD*
D11*
G04 #@! TO.P,R5,1*
G04 #@! TO.N,N$41*
X174561600Y-138560100D03*
G04 #@! TO.P,R5,2*
G04 #@! TO.N,VCC*
X174561600Y-135562100D03*
G04 #@! TD*
D12*
G04 #@! TO.P,X23,P$1*
G04 #@! TO.N,N$83*
X188785600Y-119916100D03*
G04 #@! TO.P,X23,P$2*
G04 #@! TO.N,N$84*
X188785600Y-123472100D03*
G04 #@! TD*
G04 #@! TO.P,X18,P$1*
G04 #@! TO.N,N$73*
X188785600Y-84991100D03*
G04 #@! TO.P,X18,P$2*
G04 #@! TO.N,N$74*
X188785600Y-88547100D03*
G04 #@! TD*
D11*
G04 #@! TO.P,R18,1*
G04 #@! TO.N,N$13*
X129095600Y-138560100D03*
G04 #@! TO.P,R18,2*
G04 #@! TO.N,VCC*
X129095600Y-135562100D03*
G04 #@! TD*
G04 #@! TO.P,R23,1*
G04 #@! TO.N,N$3*
X111696600Y-138560100D03*
G04 #@! TO.P,R23,2*
G04 #@! TO.N,VCC*
X111696600Y-135562100D03*
G04 #@! TD*
D15*
G04 #@! TO.P,IC6,1*
G04 #@! TO.N,N$16*
X123380600Y-114099500D03*
G04 #@! TO.P,IC6,2*
G04 #@! TO.N,N$18*
X124650600Y-114099500D03*
G04 #@! TO.P,IC6,3*
G04 #@! TO.N,N$20*
X125920600Y-114099500D03*
G04 #@! TO.P,IC6,4*
G04 #@! TO.N,N$22*
X127190600Y-114099500D03*
G04 #@! TO.P,IC6,5*
G04 #@! TO.N,N$24*
X128460600Y-114099500D03*
G04 #@! TO.P,IC6,6*
G04 #@! TO.N,N$26*
X129730600Y-114099500D03*
G04 #@! TO.P,IC6,7*
G04 #@! TO.N,N$28*
X131000600Y-114099500D03*
G04 #@! TO.P,IC6,8*
G04 #@! TO.N,GND*
X132270600Y-114099500D03*
G04 #@! TO.P,IC6,9*
G04 #@! TO.N,N$6*
X132270600Y-107952700D03*
G04 #@! TO.P,IC6,10*
G04 #@! TO.N,VCC*
X131000600Y-107952700D03*
G04 #@! TO.P,IC6,11*
G04 #@! TO.N,D8*
X129730600Y-107952700D03*
G04 #@! TO.P,IC6,12*
G04 #@! TO.N,D6*
X128460600Y-107952700D03*
G04 #@! TO.P,IC6,13*
G04 #@! TO.N,GND*
X127190600Y-107952700D03*
G04 #@! TO.P,IC6,14*
G04 #@! TO.N,D7*
X125920600Y-107952700D03*
G04 #@! TO.P,IC6,15*
G04 #@! TO.N,N$14*
X124650600Y-107952700D03*
G04 #@! TO.P,IC6,16*
G04 #@! TO.N,VCC*
X123380600Y-107952700D03*
G04 #@! TD*
D12*
G04 #@! TO.P,X3,P$1*
G04 #@! TO.N,N$22*
X107505600Y-116106100D03*
G04 #@! TO.P,X3,P$2*
G04 #@! TO.N,N$24*
X107505600Y-112550100D03*
G04 #@! TD*
D11*
G04 #@! TO.P,R8,1*
G04 #@! TO.N,N$35*
X164020600Y-138560100D03*
G04 #@! TO.P,R8,2*
G04 #@! TO.N,VCC*
X164020600Y-135562100D03*
G04 #@! TD*
D12*
G04 #@! TO.P,X8,P$1*
G04 #@! TO.N,N$42*
X107505600Y-81181100D03*
G04 #@! TO.P,X8,P$2*
G04 #@! TO.N,N$44*
X107505600Y-77625100D03*
G04 #@! TD*
G04 #@! TO.P,X29,P$1*
G04 #@! TO.N,N$19*
X136080600Y-145951100D03*
G04 #@! TO.P,X29,P$2*
G04 #@! TO.N,N$21*
X139636600Y-145951100D03*
G04 #@! TD*
D11*
G04 #@! TO.P,R21,1*
G04 #@! TO.N,N$7*
X118681600Y-138560100D03*
G04 #@! TO.P,R21,2*
G04 #@! TO.N,VCC*
X118681600Y-135562100D03*
G04 #@! TD*
G04 #@! TO.P,R17,1*
G04 #@! TO.N,N$15*
X132651600Y-138560100D03*
G04 #@! TO.P,R17,2*
G04 #@! TO.N,VCC*
X132651600Y-135562100D03*
G04 #@! TD*
D12*
G04 #@! TO.P,X14,P$1*
G04 #@! TO.N,N$63*
X141668600Y-63909100D03*
G04 #@! TO.P,X14,P$2*
G04 #@! TO.N,N$64*
X145224600Y-63909100D03*
G04 #@! TD*
G04 #@! TO.P,X22,P$1*
G04 #@! TO.N,N$81*
X188785600Y-112931100D03*
G04 #@! TO.P,X22,P$2*
G04 #@! TO.N,N$82*
X188785600Y-116487100D03*
G04 #@! TD*
G04 #@! TO.P,X35,P$1*
G04 #@! TO.N,N$43*
X177990600Y-145951100D03*
G04 #@! TO.P,X35,P$2*
G04 #@! TO.N,N$45*
X181546600Y-145951100D03*
G04 #@! TD*
D11*
G04 #@! TO.P,R9,1*
G04 #@! TO.N,N$33*
X160591600Y-138560100D03*
G04 #@! TO.P,R9,2*
G04 #@! TO.N,VCC*
X160591600Y-135562100D03*
G04 #@! TD*
G04 #@! TO.P,R7,1*
G04 #@! TO.N,N$37*
X167576600Y-138560100D03*
G04 #@! TO.P,R7,2*
G04 #@! TO.N,VCC*
X167576600Y-135562100D03*
G04 #@! TD*
G04 #@! TO.P,R6,1*
G04 #@! TO.N,N$39*
X171005600Y-138560100D03*
G04 #@! TO.P,R6,2*
G04 #@! TO.N,VCC*
X171005600Y-135562100D03*
G04 #@! TD*
D15*
G04 #@! TO.P,IC10,1*
G04 #@! TO.N,N$72*
X167830600Y-97589500D03*
G04 #@! TO.P,IC10,2*
G04 #@! TO.N,N$73*
X169100600Y-97589500D03*
G04 #@! TO.P,IC10,3*
G04 #@! TO.N,N$74*
X170370600Y-97589500D03*
G04 #@! TO.P,IC10,4*
G04 #@! TO.N,N$75*
X171640600Y-97589500D03*
G04 #@! TO.P,IC10,5*
G04 #@! TO.N,N$76*
X172910600Y-97589500D03*
G04 #@! TO.P,IC10,6*
G04 #@! TO.N,N$77*
X174180600Y-97589500D03*
G04 #@! TO.P,IC10,7*
G04 #@! TO.N,N$78*
X175450600Y-97589500D03*
G04 #@! TO.P,IC10,8*
G04 #@! TO.N,GND*
X176720600Y-97589500D03*
G04 #@! TO.P,IC10,9*
G04 #@! TO.N,N$12*
X176720600Y-91442700D03*
G04 #@! TO.P,IC10,10*
G04 #@! TO.N,VCC*
X175450600Y-91442700D03*
G04 #@! TO.P,IC10,11*
G04 #@! TO.N,D8*
X174180600Y-91442700D03*
G04 #@! TO.P,IC10,12*
G04 #@! TO.N,D6*
X172910600Y-91442700D03*
G04 #@! TO.P,IC10,13*
G04 #@! TO.N,GND*
X171640600Y-91442700D03*
G04 #@! TO.P,IC10,14*
G04 #@! TO.N,N$8*
X170370600Y-91442700D03*
G04 #@! TO.P,IC10,15*
G04 #@! TO.N,N$71*
X169100600Y-91442700D03*
G04 #@! TO.P,IC10,16*
G04 #@! TO.N,VCC*
X167830600Y-91442700D03*
G04 #@! TD*
D12*
G04 #@! TO.P,X21,P$1*
G04 #@! TO.N,N$79*
X188785600Y-105946100D03*
G04 #@! TO.P,X21,P$2*
G04 #@! TO.N,N$80*
X188785600Y-109502100D03*
G04 #@! TD*
G04 #@! TO.P,X2,P$1*
G04 #@! TO.N,N$18*
X107505600Y-123091100D03*
G04 #@! TO.P,X2,P$2*
G04 #@! TO.N,N$20*
X107505600Y-119535100D03*
G04 #@! TD*
D10*
G04 #@! TO.P,C1,1*
G04 #@! TO.N,GND*
X169100600Y-123596100D03*
G04 #@! TO.P,C1,2*
G04 #@! TO.N,VCC*
X169100600Y-126396100D03*
G04 #@! TD*
D12*
G04 #@! TO.P,X30,P$1*
G04 #@! TO.N,N$23*
X143065600Y-145951100D03*
G04 #@! TO.P,X30,P$2*
G04 #@! TO.N,N$25*
X146621600Y-145951100D03*
G04 #@! TD*
D11*
G04 #@! TO.P,R10,1*
G04 #@! TO.N,N$31*
X157035600Y-138560100D03*
G04 #@! TO.P,R10,2*
G04 #@! TO.N,VCC*
X157035600Y-135562100D03*
G04 #@! TD*
D15*
G04 #@! TO.P,IC9,1*
G04 #@! TO.N,N$62*
X147510600Y-81079500D03*
G04 #@! TO.P,IC9,2*
G04 #@! TO.N,N$63*
X148780600Y-81079500D03*
G04 #@! TO.P,IC9,3*
G04 #@! TO.N,N$64*
X150050600Y-81079500D03*
G04 #@! TO.P,IC9,4*
G04 #@! TO.N,N$65*
X151320600Y-81079500D03*
G04 #@! TO.P,IC9,5*
G04 #@! TO.N,N$66*
X152590600Y-81079500D03*
G04 #@! TO.P,IC9,6*
G04 #@! TO.N,N$67*
X153860600Y-81079500D03*
G04 #@! TO.P,IC9,7*
G04 #@! TO.N,N$69*
X155130600Y-81079500D03*
G04 #@! TO.P,IC9,8*
G04 #@! TO.N,GND*
X156400600Y-81079500D03*
G04 #@! TO.P,IC9,9*
G04 #@! TO.N,N$8*
X156400600Y-74932700D03*
G04 #@! TO.P,IC9,10*
G04 #@! TO.N,VCC*
X155130600Y-74932700D03*
G04 #@! TO.P,IC9,11*
G04 #@! TO.N,D8*
X153860600Y-74932700D03*
G04 #@! TO.P,IC9,12*
G04 #@! TO.N,D6*
X152590600Y-74932700D03*
G04 #@! TO.P,IC9,13*
G04 #@! TO.N,GND*
X151320600Y-74932700D03*
G04 #@! TO.P,IC9,14*
G04 #@! TO.N,N$51*
X150050600Y-74932700D03*
G04 #@! TO.P,IC9,15*
G04 #@! TO.N,N$61*
X148780600Y-74932700D03*
G04 #@! TO.P,IC9,16*
G04 #@! TO.N,VCC*
X147510600Y-74932700D03*
G04 #@! TD*
D12*
G04 #@! TO.P,X20,P$1*
G04 #@! TO.N,N$77*
X188785600Y-98961100D03*
G04 #@! TO.P,X20,P$2*
G04 #@! TO.N,N$78*
X188785600Y-102517100D03*
G04 #@! TD*
G04 #@! TO.P,X27,P$1*
G04 #@! TO.N,N$9*
X122110600Y-145951100D03*
G04 #@! TO.P,X27,P$2*
G04 #@! TO.N,N$11*
X125666600Y-145951100D03*
G04 #@! TD*
D10*
G04 #@! TO.P,C8,1*
G04 #@! TO.N,GND*
X142430600Y-76606100D03*
G04 #@! TO.P,C8,2*
G04 #@! TO.N,VCC*
X142430600Y-79406100D03*
G04 #@! TD*
D12*
G04 #@! TO.P,X32,P$1*
G04 #@! TO.N,N$31*
X157035600Y-145951100D03*
G04 #@! TO.P,X32,P$2*
G04 #@! TO.N,N$33*
X160591600Y-145951100D03*
G04 #@! TD*
D11*
G04 #@! TO.P,R15,1*
G04 #@! TO.N,N$21*
X139636600Y-138560100D03*
G04 #@! TO.P,R15,2*
G04 #@! TO.N,VCC*
X139636600Y-135562100D03*
G04 #@! TD*
G04 #@! TO.P,R16,1*
G04 #@! TO.N,N$19*
X136080600Y-138560100D03*
G04 #@! TO.P,R16,2*
G04 #@! TO.N,VCC*
X136080600Y-135562100D03*
G04 #@! TD*
D19*
G04 #@! TO.P,X38,1*
G04 #@! TO.N,GND*
X184340600Y-66576100D03*
G04 #@! TO.P,X38,2*
X179260600Y-66576100D03*
G04 #@! TD*
D11*
G04 #@! TO.P,R2,1*
G04 #@! TO.N,N$47*
X184975600Y-138560100D03*
G04 #@! TO.P,R2,2*
G04 #@! TO.N,VCC*
X184975600Y-135562100D03*
G04 #@! TD*
D13*
G04 #@! TO.P,U$2,A*
G04 #@! TO.N,RX*
X163385600Y-86146100D03*
G04 #@! TO.P,U$2,C*
G04 #@! TO.N,N$54*
X163385600Y-87646100D03*
G04 #@! TD*
G04 #@! TO.P,U$3,A*
G04 #@! TO.N,D3*
X159575600Y-86146100D03*
G04 #@! TO.P,U$3,C*
G04 #@! TO.N,N$58*
X159575600Y-87646100D03*
G04 #@! TD*
D11*
G04 #@! TO.P,R3,1*
G04 #@! TO.N,N$45*
X181546600Y-138560100D03*
G04 #@! TO.P,R3,2*
G04 #@! TO.N,VCC*
X181546600Y-135562100D03*
G04 #@! TD*
D19*
G04 #@! TO.P,X37,1*
G04 #@! TO.N,VCC*
X194500600Y-66576100D03*
G04 #@! TO.P,X37,2*
G04 #@! TO.N,GND*
X189420600Y-66576100D03*
G04 #@! TD*
D12*
G04 #@! TO.P,X10,P$1*
G04 #@! TO.N,N$49*
X113728600Y-63909100D03*
G04 #@! TO.P,X10,P$2*
G04 #@! TO.N,N$50*
X117284600Y-63909100D03*
G04 #@! TD*
G04 #@! TO.P,X12,P$1*
G04 #@! TO.N,N$59*
X127698600Y-63909100D03*
G04 #@! TO.P,X12,P$2*
G04 #@! TO.N,N$60*
X131254600Y-63909100D03*
G04 #@! TD*
G04 #@! TO.P,X13,P$1*
G04 #@! TO.N,N$61*
X134683600Y-63909100D03*
G04 #@! TO.P,X13,P$2*
G04 #@! TO.N,N$62*
X138239600Y-63909100D03*
G04 #@! TD*
G04 #@! TO.P,X36,P$1*
G04 #@! TO.N,N$47*
X184975600Y-145951100D03*
G04 #@! TO.P,X36,P$2*
G04 #@! TO.N,N$57*
X188531600Y-145951100D03*
G04 #@! TD*
D20*
G04 #@! TO.P,IC5,1*
G04 #@! TO.N,D9*
X127089000Y-129441100D03*
G04 #@! TO.P,IC5,2*
G04 #@! TO.N,D13*
X127089000Y-128171100D03*
G04 #@! TO.P,IC5,3*
G04 #@! TO.N,N$9*
X127089000Y-126901100D03*
G04 #@! TO.P,IC5,4*
G04 #@! TO.N,N$11*
X127089000Y-125631100D03*
G04 #@! TO.P,IC5,5*
G04 #@! TO.N,N$13*
X127089000Y-124361100D03*
G04 #@! TO.P,IC5,6*
G04 #@! TO.N,N$15*
X127089000Y-123091100D03*
G04 #@! TO.P,IC5,7*
G04 #@! TO.N,N/C*
X127089000Y-121821100D03*
G04 #@! TO.P,IC5,8*
G04 #@! TO.N,GND*
X127089000Y-120551100D03*
G04 #@! TO.P,IC5,9*
G04 #@! TO.N,D12*
X120942200Y-120551100D03*
G04 #@! TO.P,IC5,10*
G04 #@! TO.N,N$4*
X120942200Y-121821100D03*
G04 #@! TO.P,IC5,11*
G04 #@! TO.N,N$1*
X120942200Y-123091100D03*
G04 #@! TO.P,IC5,12*
G04 #@! TO.N,N$3*
X120942200Y-124361100D03*
G04 #@! TO.P,IC5,13*
G04 #@! TO.N,N$5*
X120942200Y-125631100D03*
G04 #@! TO.P,IC5,14*
G04 #@! TO.N,N$7*
X120942200Y-126901100D03*
G04 #@! TO.P,IC5,15*
G04 #@! TO.N,GND*
X120942200Y-128171100D03*
G04 #@! TO.P,IC5,16*
G04 #@! TO.N,VCC*
X120942200Y-129441100D03*
G04 #@! TD*
D12*
G04 #@! TO.P,X17,P$1*
G04 #@! TO.N,N$71*
X188785600Y-78006100D03*
G04 #@! TO.P,X17,P$2*
G04 #@! TO.N,N$72*
X188785600Y-81562100D03*
G04 #@! TD*
D11*
G04 #@! TO.P,R13,1*
G04 #@! TO.N,N$25*
X146621600Y-138560100D03*
G04 #@! TO.P,R13,2*
G04 #@! TO.N,VCC*
X146621600Y-135562100D03*
G04 #@! TD*
D20*
G04 #@! TO.P,IC1,1*
G04 #@! TO.N,D9*
X179159000Y-129441100D03*
G04 #@! TO.P,IC1,2*
G04 #@! TO.N,D13*
X179159000Y-128171100D03*
G04 #@! TO.P,IC1,3*
G04 #@! TO.N,N$43*
X179159000Y-126901100D03*
G04 #@! TO.P,IC1,4*
G04 #@! TO.N,N$45*
X179159000Y-125631100D03*
G04 #@! TO.P,IC1,5*
G04 #@! TO.N,N$47*
X179159000Y-124361100D03*
G04 #@! TO.P,IC1,6*
G04 #@! TO.N,N$57*
X179159000Y-123091100D03*
G04 #@! TO.P,IC1,7*
G04 #@! TO.N,N/C*
X179159000Y-121821100D03*
G04 #@! TO.P,IC1,8*
G04 #@! TO.N,GND*
X179159000Y-120551100D03*
G04 #@! TO.P,IC1,9*
G04 #@! TO.N,N$2*
X173012200Y-120551100D03*
G04 #@! TO.P,IC1,10*
G04 #@! TO.N,N/C*
X173012200Y-121821100D03*
G04 #@! TO.P,IC1,11*
G04 #@! TO.N,N$35*
X173012200Y-123091100D03*
G04 #@! TO.P,IC1,12*
G04 #@! TO.N,N$37*
X173012200Y-124361100D03*
G04 #@! TO.P,IC1,13*
G04 #@! TO.N,N$39*
X173012200Y-125631100D03*
G04 #@! TO.P,IC1,14*
G04 #@! TO.N,N$41*
X173012200Y-126901100D03*
G04 #@! TO.P,IC1,15*
G04 #@! TO.N,GND*
X173012200Y-128171100D03*
G04 #@! TO.P,IC1,16*
G04 #@! TO.N,VCC*
X173012200Y-129441100D03*
G04 #@! TD*
D12*
G04 #@! TO.P,X26,P$1*
G04 #@! TO.N,N$5*
X115125600Y-145951100D03*
G04 #@! TO.P,X26,P$2*
G04 #@! TO.N,N$7*
X118681600Y-145951100D03*
G04 #@! TD*
D20*
G04 #@! TO.P,IC3,1*
G04 #@! TO.N,D9*
X151219000Y-131981100D03*
G04 #@! TO.P,IC3,2*
G04 #@! TO.N,D13*
X151219000Y-130711100D03*
G04 #@! TO.P,IC3,3*
G04 #@! TO.N,N$27*
X151219000Y-129441100D03*
G04 #@! TO.P,IC3,4*
G04 #@! TO.N,N$29*
X151219000Y-128171100D03*
G04 #@! TO.P,IC3,5*
G04 #@! TO.N,N$31*
X151219000Y-126901100D03*
G04 #@! TO.P,IC3,6*
G04 #@! TO.N,N$33*
X151219000Y-125631100D03*
G04 #@! TO.P,IC3,7*
G04 #@! TO.N,N/C*
X151219000Y-124361100D03*
G04 #@! TO.P,IC3,8*
G04 #@! TO.N,GND*
X151219000Y-123091100D03*
G04 #@! TO.P,IC3,9*
G04 #@! TO.N,N$4*
X145072200Y-123091100D03*
G04 #@! TO.P,IC3,10*
G04 #@! TO.N,N$2*
X145072200Y-124361100D03*
G04 #@! TO.P,IC3,11*
G04 #@! TO.N,N$19*
X145072200Y-125631100D03*
G04 #@! TO.P,IC3,12*
G04 #@! TO.N,N$21*
X145072200Y-126901100D03*
G04 #@! TO.P,IC3,13*
G04 #@! TO.N,N$23*
X145072200Y-128171100D03*
G04 #@! TO.P,IC3,14*
G04 #@! TO.N,N$25*
X145072200Y-129441100D03*
G04 #@! TO.P,IC3,15*
G04 #@! TO.N,GND*
X145072200Y-130711100D03*
G04 #@! TO.P,IC3,16*
G04 #@! TO.N,VCC*
X145072200Y-131981100D03*
G04 #@! TD*
D12*
G04 #@! TO.P,X4,P$1*
G04 #@! TO.N,N$26*
X107505600Y-109121100D03*
G04 #@! TO.P,X4,P$2*
G04 #@! TO.N,N$28*
X107505600Y-105565100D03*
G04 #@! TD*
D15*
G04 #@! TO.P,IC11,1*
G04 #@! TO.N,N$80*
X167830600Y-114099500D03*
G04 #@! TO.P,IC11,2*
G04 #@! TO.N,N$81*
X169100600Y-114099500D03*
G04 #@! TO.P,IC11,3*
G04 #@! TO.N,N$82*
X170370600Y-114099500D03*
G04 #@! TO.P,IC11,4*
G04 #@! TO.N,N$83*
X171640600Y-114099500D03*
G04 #@! TO.P,IC11,5*
G04 #@! TO.N,N$84*
X172910600Y-114099500D03*
G04 #@! TO.P,IC11,6*
G04 #@! TO.N,N$85*
X174180600Y-114099500D03*
G04 #@! TO.P,IC11,7*
G04 #@! TO.N,N$86*
X175450600Y-114099500D03*
G04 #@! TO.P,IC11,8*
G04 #@! TO.N,GND*
X176720600Y-114099500D03*
G04 #@! TO.P,IC11,9*
G04 #@! TO.N,N/C*
X176720600Y-107952700D03*
G04 #@! TO.P,IC11,10*
G04 #@! TO.N,VCC*
X175450600Y-107952700D03*
G04 #@! TO.P,IC11,11*
G04 #@! TO.N,D8*
X174180600Y-107952700D03*
G04 #@! TO.P,IC11,12*
G04 #@! TO.N,D6*
X172910600Y-107952700D03*
G04 #@! TO.P,IC11,13*
G04 #@! TO.N,GND*
X171640600Y-107952700D03*
G04 #@! TO.P,IC11,14*
G04 #@! TO.N,N$12*
X170370600Y-107952700D03*
G04 #@! TO.P,IC11,15*
G04 #@! TO.N,N$79*
X169100600Y-107952700D03*
G04 #@! TO.P,IC11,16*
G04 #@! TO.N,VCC*
X167830600Y-107952700D03*
G04 #@! TD*
G04 #@! TO.P,IC7,1*
G04 #@! TO.N,N$32*
X123380600Y-97589500D03*
G04 #@! TO.P,IC7,2*
G04 #@! TO.N,N$34*
X124650600Y-97589500D03*
G04 #@! TO.P,IC7,3*
G04 #@! TO.N,N$36*
X125920600Y-97589500D03*
G04 #@! TO.P,IC7,4*
G04 #@! TO.N,N$38*
X127190600Y-97589500D03*
G04 #@! TO.P,IC7,5*
G04 #@! TO.N,N$40*
X128460600Y-97589500D03*
G04 #@! TO.P,IC7,6*
G04 #@! TO.N,N$42*
X129730600Y-97589500D03*
G04 #@! TO.P,IC7,7*
G04 #@! TO.N,N$44*
X131000600Y-97589500D03*
G04 #@! TO.P,IC7,8*
G04 #@! TO.N,GND*
X132270600Y-97589500D03*
G04 #@! TO.P,IC7,9*
G04 #@! TO.N,N$10*
X132270600Y-91442700D03*
G04 #@! TO.P,IC7,10*
G04 #@! TO.N,VCC*
X131000600Y-91442700D03*
G04 #@! TO.P,IC7,11*
G04 #@! TO.N,D8*
X129730600Y-91442700D03*
G04 #@! TO.P,IC7,12*
G04 #@! TO.N,D6*
X128460600Y-91442700D03*
G04 #@! TO.P,IC7,13*
G04 #@! TO.N,GND*
X127190600Y-91442700D03*
G04 #@! TO.P,IC7,14*
G04 #@! TO.N,N$6*
X125920600Y-91442700D03*
G04 #@! TO.P,IC7,15*
G04 #@! TO.N,N$30*
X124650600Y-91442700D03*
G04 #@! TO.P,IC7,16*
G04 #@! TO.N,VCC*
X123380600Y-91442700D03*
G04 #@! TD*
D21*
G04 #@! TO.N,GND*
X151320600Y-73243600D03*
X115443100Y-123726100D03*
X171640600Y-106263600D03*
X169100600Y-122138600D03*
X133540600Y-73243600D03*
X177673100Y-113883600D03*
X126555600Y-92928600D03*
X177673100Y-119916100D03*
X124015600Y-129441100D03*
X117983100Y-95786100D03*
X171640600Y-89753600D03*
X127190600Y-109756100D03*
X119570600Y-108168600D03*
X177673100Y-97373600D03*
X134810600Y-121821100D03*
X174815600Y-128171100D03*
X140843100Y-76736100D03*
X151320600Y-122138600D03*
X159258100Y-80863600D03*
X139573100Y-80863600D03*
G04 #@! TO.N,VCC*
X136080600Y-77688600D03*
X137033100Y-76736100D03*
X170688100Y-129441100D03*
X160210600Y-118646100D03*
X153860600Y-105628600D03*
X136080600Y-128806100D03*
X136080600Y-131663600D03*
X139573100Y-74196100D03*
X169735600Y-128488600D03*
G04 #@! TO.N,D6*
X171005600Y-92928600D03*
X129095600Y-104676100D03*
X129095600Y-92928600D03*
X138303100Y-77053600D03*
X168465600Y-96103600D03*
G04 #@! TO.N,D8*
X178308100Y-94198600D03*
X129730600Y-89753600D03*
X130048100Y-109756100D03*
X174180600Y-104993600D03*
X141160600Y-78006100D03*
G04 #@! TO.N,N$1*
X114490600Y-132933600D03*
G04 #@! TO.N,N$7*
X119253100Y-127536100D03*
G04 #@! TO.N,N$9*
X123380600Y-127536100D03*
G04 #@! TO.N,N$11*
X125603100Y-126266100D03*
G04 #@! TO.N,N$13*
X128778100Y-124996100D03*
G04 #@! TO.N,N$19*
X140843100Y-128806100D03*
G04 #@! TO.N,N$21*
X141795600Y-128806100D03*
G04 #@! TO.N,N$23*
X143383100Y-128171100D03*
G04 #@! TO.N,N$25*
X146875600Y-129441100D03*
G04 #@! TO.N,N$27*
X149415600Y-129441100D03*
G04 #@! TO.N,N$29*
X152908100Y-128806100D03*
G04 #@! TO.N,N$31*
X156400600Y-131346100D03*
G04 #@! TO.N,N$33*
X157670600Y-131346100D03*
G04 #@! TO.N,N$35*
X161163100Y-131346100D03*
G04 #@! TO.N,N$37*
X166878100Y-131346100D03*
G04 #@! TO.N,N$39*
X171323100Y-126266100D03*
G04 #@! TO.N,N$41*
X174815600Y-127218600D03*
G04 #@! TO.N,N$43*
X180213100Y-134521100D03*
G04 #@! TO.N,D9*
X146558100Y-124996100D03*
G04 #@! TO.N,D12*
X136715600Y-119916100D03*
G04 #@! TO.N,A*
X167830600Y-73561100D03*
G04 #@! TO.N,D2*
X143383100Y-92928600D03*
G04 #@! TO.N,N$6*
X133540600Y-106581100D03*
X132905600Y-92928600D03*
G04 #@! TO.N,N$12*
X176403100Y-94198600D03*
X170370600Y-105946100D03*
G04 #@! TO.N,N$16*
X115443100Y-118011100D03*
G04 #@! TO.N,N$26*
X121158100Y-112296100D03*
G04 #@! TO.N,N$28*
X125285600Y-106263600D03*
X130683100Y-111661100D03*
G04 #@! TO.N,N$38*
X118935600Y-100231100D03*
G04 #@! TO.N,N$48*
X129095600Y-79593600D03*
G04 #@! TO.N,N$49*
X129730600Y-78958600D03*
G04 #@! TO.N,N$50*
X131635600Y-79276100D03*
G04 #@! TO.N,N$52*
X132270600Y-78641100D03*
G04 #@! TO.N,N$53*
X133540600Y-76736100D03*
X134810600Y-78641100D03*
G04 #@! TO.N,N$59*
X128460600Y-74196100D03*
G04 #@! TO.N,N$60*
X137350600Y-79276100D03*
G04 #@! TO.N,N$62*
X147510600Y-79276100D03*
G04 #@! TO.N,N$63*
X148780600Y-79276100D03*
G04 #@! TO.N,N$64*
X150050600Y-79276100D03*
G04 #@! TO.N,N$65*
X151320600Y-79276100D03*
G04 #@! TO.N,N$66*
X153225600Y-78958600D03*
G04 #@! TO.N,N$67*
X154178100Y-78006100D03*
G04 #@! TO.N,N$69*
X156400600Y-77688600D03*
G04 #@! TO.N,N$72*
X172275600Y-95468600D03*
G04 #@! TO.N,N$80*
X184023100Y-112613600D03*
G04 #@! TO.N,N$84*
X184023100Y-118646100D03*
G04 #@! TO.N,B*
X166560600Y-73561100D03*
G04 #@! TO.N,D3*
X150368100Y-89118600D03*
G04 #@! TO.N,N$17*
X158940600Y-111661100D03*
X163385600Y-91658600D03*
G04 #@! TO.N,N$54*
X157353100Y-110708600D03*
X157988100Y-91023600D03*
G04 #@! TO.N,N$58*
X158623100Y-94198600D03*
X159575600Y-89118600D03*
G04 #@! TD*
D22*
G04 #@! TO.N,GND*
X162750600Y-96103600D02*
X162750600Y-95916100D01*
X142113100Y-94833600D02*
X146558100Y-94833600D01*
X146875600Y-114836100D02*
X149415600Y-117376100D01*
X127089000Y-120551100D02*
X133223100Y-120551100D01*
X125285600Y-130711100D02*
X124015600Y-129441100D01*
X176720600Y-113883600D02*
X176720600Y-114099500D01*
X146558100Y-94833600D02*
X146558100Y-102136100D01*
X136080600Y-123408600D02*
X136080600Y-123596100D01*
X178943100Y-120551100D02*
X179159000Y-120551100D01*
X171640600Y-89753600D02*
X171640600Y-91442700D01*
X124015600Y-129441100D02*
X123063100Y-128488600D01*
X115443100Y-123726100D02*
X117030600Y-123726100D01*
X178308100Y-119916100D02*
X178943100Y-120551100D01*
X123063100Y-128488600D02*
X121475600Y-128488600D01*
X177673100Y-97373600D02*
X176720600Y-97373600D01*
X146875600Y-102136100D02*
X146646600Y-102136100D01*
X177673100Y-113883600D02*
X176720600Y-113883600D01*
X169100600Y-78323600D02*
X169100600Y-75406100D01*
X158940600Y-80863600D02*
X159099350Y-80704850D01*
X142430600Y-76736100D02*
X142430600Y-76606100D01*
X121158100Y-128171100D02*
X120942200Y-128171100D01*
X159258100Y-80863600D02*
X159099350Y-80704850D01*
X156718100Y-102136100D02*
X162750600Y-96103600D01*
X135286850Y-122614850D02*
X136080600Y-123408600D01*
X146558100Y-102136100D02*
X146646600Y-102136100D01*
X140525600Y-93563600D02*
X140525600Y-93246100D01*
X151320600Y-122138600D02*
X151320600Y-123091100D01*
X132270600Y-97373600D02*
X132270600Y-97589500D01*
X169100600Y-122138600D02*
X169100600Y-123596100D01*
X137668100Y-120233600D02*
X135286850Y-122614850D01*
X157988100Y-117376100D02*
X162750600Y-112613600D01*
X151320600Y-73243600D02*
X151320600Y-74932700D01*
X140525600Y-93246100D02*
X142113100Y-94833600D01*
X174815600Y-128171100D02*
X173012200Y-128171100D01*
X138620600Y-80863600D02*
X138620600Y-81079500D01*
X119570600Y-108168600D02*
X119570600Y-109626100D01*
X140525600Y-93563600D02*
X136080600Y-93563600D01*
X146875600Y-114836100D02*
X146646600Y-114836100D01*
X132270600Y-114201100D02*
X132270600Y-114099500D01*
X146875600Y-112296100D02*
X146646600Y-112296100D01*
X177673100Y-119916100D02*
X178308100Y-119916100D01*
X121475600Y-128488600D02*
X121158100Y-128171100D01*
X171640600Y-106263600D02*
X171640600Y-107952700D01*
X133540600Y-73243600D02*
X133540600Y-74932700D01*
X146646600Y-114836100D02*
X137668100Y-114836100D01*
X156400600Y-80863600D02*
X158940600Y-80863600D01*
X151955600Y-102136100D02*
X156718100Y-102136100D01*
X159099350Y-80704850D02*
X160210600Y-79593600D01*
X160210600Y-79593600D02*
X160210600Y-79406100D01*
X126555600Y-92928600D02*
X127190600Y-92928600D01*
X137668100Y-114836100D02*
X137668100Y-120233600D01*
X117983100Y-95786100D02*
X119570600Y-95786100D01*
X145072200Y-130711100D02*
X125285600Y-130711100D01*
X161163100Y-78323600D02*
X169100600Y-78323600D01*
X134651850Y-121979850D02*
X135286850Y-122614850D01*
X160210600Y-79276100D02*
X161163100Y-78323600D01*
X132905600Y-114836100D02*
X132270600Y-114201100D01*
X151320600Y-123091100D02*
X151219000Y-123091100D01*
X149415600Y-117376100D02*
X157988100Y-117376100D01*
X133223100Y-120551100D02*
X134651850Y-121979850D01*
X146875600Y-112296100D02*
X146875600Y-114836100D01*
X148145600Y-103406100D02*
X150685600Y-103406100D01*
X127190600Y-109756100D02*
X127190600Y-107952700D01*
X134810600Y-121821100D02*
X134651850Y-121979850D01*
X127190600Y-92928600D02*
X127190600Y-91442700D01*
X140843100Y-76736100D02*
X142430600Y-76736100D01*
X162750600Y-112613600D02*
X162750600Y-112426100D01*
X160210600Y-79276100D02*
X160210600Y-79406100D01*
X139573100Y-80863600D02*
X138620600Y-80863600D01*
X119570600Y-95786100D02*
X119570600Y-95916100D01*
X156400600Y-80863600D02*
X156400600Y-81079500D01*
X117030600Y-123726100D02*
X117030600Y-123596100D01*
X136080600Y-93563600D02*
X132270600Y-97373600D01*
X137668100Y-114836100D02*
X132905600Y-114836100D01*
X176720600Y-97373600D02*
X176720600Y-97589500D01*
X150685600Y-103406100D02*
X151955600Y-102136100D01*
X146875600Y-102136100D02*
X148145600Y-103406100D01*
G04 #@! TO.N,VCC*
X160210600Y-76418600D02*
X160210600Y-76606100D01*
X153860600Y-109756100D02*
X153860600Y-105628600D01*
X129730600Y-77688600D02*
X129730600Y-74932700D01*
X119570600Y-92928600D02*
X119570600Y-93116100D01*
X136080600Y-135473600D02*
X132905600Y-135473600D01*
X169735600Y-128488600D02*
X169100600Y-128488600D01*
X135445600Y-91976100D02*
X135286850Y-91817350D01*
X129095600Y-135473600D02*
X132588100Y-135473600D01*
X142430600Y-79593600D02*
X139255600Y-82768600D01*
X115125600Y-135473600D02*
X118618100Y-135473600D01*
X188468100Y-72608600D02*
X194500600Y-66576100D01*
X184975600Y-135473600D02*
X184975600Y-135562100D01*
X123380600Y-91658600D02*
X123380600Y-91442700D01*
X136715600Y-78323600D02*
X136080600Y-77688600D01*
X167513100Y-92293600D02*
X167830600Y-91442700D01*
X162750600Y-109756100D02*
X162750600Y-109626100D01*
X123380600Y-107952700D02*
X123380600Y-108486100D01*
X153543100Y-135473600D02*
X153606600Y-135562100D01*
X142430600Y-78958600D02*
X140843100Y-78958600D01*
X175450600Y-93881100D02*
X175450600Y-91442700D01*
X136080600Y-135473600D02*
X136080600Y-135562100D01*
X154495600Y-76736100D02*
X160210600Y-76736100D01*
X140208100Y-78323600D02*
X136715600Y-78323600D01*
X181483100Y-135473600D02*
X181546600Y-135562100D01*
X155130600Y-75783600D02*
X154336850Y-76577350D01*
X142430600Y-78958600D02*
X142430600Y-79406100D01*
X129095600Y-135473600D02*
X125920600Y-135473600D01*
X173228100Y-129441100D02*
X173012200Y-129441100D01*
X167830600Y-108168600D02*
X167195600Y-108168600D01*
X160210600Y-118646100D02*
X168941850Y-109914850D01*
X164020600Y-135473600D02*
X164020600Y-135562100D01*
X146875600Y-74196100D02*
X147510600Y-74831100D01*
X171005600Y-135473600D02*
X171005600Y-135562100D01*
X139255600Y-87848600D02*
X135286850Y-91817350D01*
X123380600Y-108486100D02*
X121316850Y-110549850D01*
X137033100Y-76736100D02*
X137350600Y-76736100D01*
X135286850Y-91817350D02*
X133223100Y-93881100D01*
X162750600Y-92928600D02*
X166560600Y-92928600D01*
X167513100Y-92293600D02*
X169100600Y-93881100D01*
X146875600Y-135156100D02*
X145288100Y-135156100D01*
X132905600Y-135473600D02*
X132651600Y-135562100D01*
X184975600Y-135473600D02*
X188468100Y-135473600D01*
X160210600Y-76736100D02*
X160210600Y-76606100D01*
X162750600Y-93246100D02*
X162750600Y-93116100D01*
X160528100Y-135473600D02*
X160591600Y-135562100D01*
X146875600Y-135473600D02*
X146621600Y-135562100D01*
X169100600Y-128488600D02*
X169100600Y-126396100D01*
X118618100Y-135473600D02*
X118681600Y-135562100D01*
X145288100Y-135156100D02*
X143383100Y-135156100D01*
X142430600Y-79276100D02*
X142430600Y-79406100D01*
X157035600Y-135473600D02*
X157035600Y-135562100D01*
X163385600Y-75466100D02*
X161163100Y-75466100D01*
X165290600Y-75466100D02*
X165290600Y-75406100D01*
X121158100Y-135473600D02*
X121158100Y-129441100D01*
X150050600Y-135473600D02*
X150050600Y-135562100D01*
X164020600Y-108168600D02*
X162750600Y-109438600D01*
X129095600Y-135473600D02*
X129095600Y-135562100D01*
X162750600Y-109438600D02*
X162750600Y-109626100D01*
X171005600Y-135473600D02*
X167830600Y-135473600D01*
X161163100Y-75466100D02*
X160210600Y-76418600D01*
X121158100Y-129441100D02*
X120942200Y-129441100D01*
X163385600Y-75466100D02*
X166243100Y-72608600D01*
X167513100Y-135473600D02*
X167576600Y-135562100D01*
X121475600Y-110708600D02*
X121316850Y-110549850D01*
X143383100Y-135156100D02*
X143065600Y-135473600D01*
X118935600Y-135473600D02*
X118681600Y-135562100D01*
X119570600Y-112296100D02*
X119570600Y-112426100D01*
X177990600Y-135473600D02*
X174815600Y-135473600D01*
X155130600Y-74932700D02*
X155130600Y-75783600D01*
X167195600Y-108168600D02*
X168941850Y-109914850D01*
X169100600Y-110073600D02*
X175450600Y-110073600D01*
X131000600Y-110708600D02*
X131000600Y-110073600D01*
X143065600Y-135473600D02*
X143065600Y-135562100D01*
X139573100Y-135473600D02*
X136080600Y-135473600D01*
X167830600Y-135473600D02*
X167576600Y-135562100D01*
X145288100Y-135156100D02*
X145288100Y-131981100D01*
X120840600Y-91658600D02*
X119570600Y-92928600D01*
X119888100Y-129441100D02*
X117030600Y-126583600D01*
X171005600Y-135473600D02*
X173228100Y-135473600D01*
X154495600Y-76736100D02*
X154336850Y-76577350D01*
X140208100Y-109756100D02*
X153860600Y-109756100D01*
X173228100Y-135473600D02*
X174498100Y-135473600D01*
X136080600Y-128806100D02*
X136080600Y-126396100D01*
X155130600Y-93881100D02*
X155765600Y-93246100D01*
X168941850Y-109914850D02*
X169100600Y-110073600D01*
X117030600Y-126583600D02*
X117030600Y-126396100D01*
X132588100Y-135473600D02*
X132651600Y-135562100D01*
X120942200Y-129441100D02*
X119888100Y-129441100D01*
X131000600Y-110073600D02*
X131000600Y-107952700D01*
X125920600Y-135473600D02*
X125666600Y-135562100D01*
X181800600Y-135473600D02*
X181546600Y-135562100D01*
X137350600Y-76736100D02*
X137350600Y-74932700D01*
X121793100Y-91658600D02*
X120840600Y-91658600D01*
X108140600Y-135473600D02*
X108140600Y-135562100D01*
X150050600Y-135473600D02*
X146875600Y-135473600D01*
X173012200Y-129441100D02*
X170688100Y-129441100D01*
X143065600Y-135473600D02*
X139890600Y-135473600D01*
X167195600Y-108168600D02*
X164020600Y-108168600D01*
X164020600Y-135473600D02*
X160845600Y-135473600D01*
X157035600Y-135473600D02*
X160528100Y-135473600D01*
X139890600Y-135473600D02*
X139636600Y-135562100D01*
X153860600Y-109756100D02*
X162750600Y-109756100D01*
X140843100Y-91976100D02*
X142748100Y-93881100D01*
X131000600Y-93881100D02*
X131000600Y-91442700D01*
X145288100Y-131981100D02*
X145072200Y-131981100D01*
X175450600Y-110073600D02*
X175450600Y-107952700D01*
X122110600Y-135473600D02*
X122110600Y-135562100D01*
X174498100Y-135473600D02*
X174561600Y-135562100D01*
X188468100Y-135473600D02*
X188531600Y-135562100D01*
X139573100Y-135473600D02*
X139636600Y-135562100D01*
X167830600Y-108168600D02*
X167830600Y-107952700D01*
X121475600Y-110708600D02*
X131000600Y-110708600D01*
X152590600Y-78323600D02*
X143383100Y-78323600D01*
X147510600Y-74831100D02*
X147510600Y-74932700D01*
X111950600Y-135473600D02*
X115125600Y-135473600D01*
X121793100Y-91658600D02*
X124015600Y-93881100D01*
X111633100Y-135473600D02*
X111696600Y-135562100D01*
X122110600Y-135473600D02*
X125603100Y-135473600D01*
X131000600Y-110073600D02*
X139890600Y-110073600D01*
X139255600Y-82768600D02*
X139255600Y-87848600D01*
X157035600Y-135473600D02*
X153860600Y-135473600D01*
X166243100Y-72608600D02*
X188468100Y-72608600D01*
X165290600Y-75466100D02*
X163385600Y-75466100D01*
X125603100Y-135473600D02*
X125666600Y-135562100D01*
X146875600Y-135156100D02*
X146621600Y-135562100D01*
X111633100Y-135473600D02*
X108140600Y-135473600D01*
X160845600Y-135473600D02*
X160591600Y-135562100D01*
X169100600Y-93881100D02*
X175450600Y-93881100D01*
X150050600Y-135473600D02*
X153543100Y-135473600D01*
X177990600Y-135473600D02*
X181483100Y-135473600D01*
X111950600Y-135473600D02*
X111696600Y-135562100D01*
X139890600Y-110073600D02*
X140208100Y-109756100D01*
X139573100Y-74196100D02*
X146875600Y-74196100D01*
X143383100Y-78323600D02*
X142430600Y-79276100D01*
X155765600Y-93246100D02*
X162750600Y-93246100D01*
X140843100Y-78958600D02*
X140208100Y-78323600D01*
X173228100Y-135473600D02*
X173228100Y-129441100D01*
X121158100Y-135473600D02*
X118935600Y-135473600D01*
X166560600Y-92928600D02*
X167830600Y-91658600D01*
X135445600Y-91976100D02*
X140843100Y-91976100D01*
X167830600Y-91658600D02*
X167830600Y-91442700D01*
X153860600Y-135473600D02*
X153606600Y-135562100D01*
X123380600Y-91658600D02*
X121793100Y-91658600D01*
X142430600Y-79593600D02*
X142430600Y-79406100D01*
X115125600Y-135473600D02*
X115125600Y-135562100D01*
X184975600Y-135473600D02*
X181800600Y-135473600D01*
X133223100Y-93881100D02*
X131000600Y-93881100D01*
X142748100Y-93881100D02*
X155130600Y-93881100D01*
X174815600Y-135473600D02*
X174561600Y-135562100D01*
X177990600Y-135473600D02*
X177990600Y-135562100D01*
X136080600Y-77688600D02*
X129730600Y-77688600D01*
X121316850Y-110549850D02*
X119570600Y-112296100D01*
X122110600Y-135473600D02*
X121158100Y-135473600D01*
X154336850Y-76577350D02*
X152590600Y-78323600D01*
X136080600Y-135473600D02*
X136080600Y-131663600D01*
X124015600Y-93881100D02*
X131000600Y-93881100D01*
X162750600Y-92928600D02*
X162750600Y-93116100D01*
X164020600Y-135473600D02*
X167513100Y-135473600D01*
D23*
G04 #@! TO.N,N$51*
X149098100Y-76418600D02*
X147193100Y-76418600D01*
X150050600Y-75466100D02*
X149098100Y-76418600D01*
X145605600Y-74831100D02*
X138620600Y-74831100D01*
X138620600Y-74831100D02*
X138620600Y-74932700D01*
X150050600Y-74932700D02*
X150050600Y-75466100D01*
X147193100Y-76418600D02*
X145605600Y-74831100D01*
G04 #@! TO.N,D6*
X168465600Y-104993600D02*
X168465600Y-96103600D01*
X137985600Y-76418600D02*
X137985600Y-73561100D01*
X152590600Y-74932700D02*
X152590600Y-75466100D01*
X128460600Y-105946100D02*
X128460600Y-107952700D01*
X147193100Y-77053600D02*
X145605600Y-75466100D01*
X171005600Y-92928600D02*
X172910600Y-92928600D01*
X145605600Y-75466100D02*
X141160600Y-75466100D01*
X138303100Y-77053600D02*
X138303100Y-76418600D01*
X128460600Y-92928600D02*
X128460600Y-91442700D01*
X140208100Y-76418600D02*
X138303100Y-76418600D01*
X129095600Y-105946100D02*
X128460600Y-105946100D01*
X134810600Y-73561100D02*
X134810600Y-74932700D01*
X168465600Y-104993600D02*
X172910600Y-104993600D01*
X141478100Y-104993600D02*
X168465600Y-104993600D01*
X172910600Y-104993600D02*
X172910600Y-107952700D01*
X140525600Y-105946100D02*
X129095600Y-105946100D01*
X172910600Y-92928600D02*
X172910600Y-91442700D01*
X138303100Y-76418600D02*
X137985600Y-76418600D01*
X137985600Y-73561100D02*
X134810600Y-73561100D01*
X129095600Y-92928600D02*
X128460600Y-92928600D01*
X140525600Y-105946100D02*
X141478100Y-104993600D01*
X141160600Y-75466100D02*
X140208100Y-76418600D01*
X152590600Y-75466100D02*
X151003100Y-77053600D01*
X129095600Y-105946100D02*
X129095600Y-104676100D01*
X151003100Y-77053600D02*
X147193100Y-77053600D01*
G04 #@! TO.N,D8*
X174180600Y-104993600D02*
X174180600Y-107952700D01*
X141160600Y-77688600D02*
X137033100Y-77688600D01*
X151638100Y-77688600D02*
X141160600Y-77688600D01*
X129730600Y-109756100D02*
X129730600Y-107952700D01*
X136080600Y-77053600D02*
X136080600Y-74932700D01*
X153860600Y-74932700D02*
X153860600Y-75466100D01*
X141160600Y-78006100D02*
X141160600Y-77688600D01*
X153860600Y-75466100D02*
X151638100Y-77688600D01*
X137033100Y-77688600D02*
X136398100Y-77053600D01*
X130048100Y-109756100D02*
X129730600Y-109756100D01*
X136398100Y-77053600D02*
X136080600Y-77053600D01*
X178308100Y-90071100D02*
X178308100Y-94198600D01*
X129730600Y-89753600D02*
X129730600Y-91442700D01*
X174815600Y-90071100D02*
X178308100Y-90071100D01*
X174180600Y-90706100D02*
X174815600Y-90071100D01*
X174180600Y-91442700D02*
X174180600Y-90706100D01*
G04 #@! TO.N,D7*
X127825600Y-109438600D02*
X127825600Y-106581100D01*
X128778100Y-109438600D02*
X127825600Y-109438600D01*
X131635600Y-106581100D02*
X129095600Y-106581100D01*
X139573100Y-109438600D02*
X131635600Y-109438600D01*
X140525600Y-108486100D02*
X139573100Y-109438600D01*
X131635600Y-109438600D02*
X131635600Y-106581100D01*
X125920600Y-106581100D02*
X125920600Y-107952700D01*
X129095600Y-109121100D02*
X128778100Y-109438600D01*
X127825600Y-106581100D02*
X125920600Y-106581100D01*
X129095600Y-106581100D02*
X129095600Y-109121100D01*
G04 #@! TO.N,N$1*
X108140600Y-145951100D02*
X108140600Y-138560100D01*
X115760600Y-122456100D02*
X118300600Y-122456100D01*
X118935600Y-123091100D02*
X120942200Y-123091100D01*
X118300600Y-122456100D02*
X118935600Y-123091100D01*
X114490600Y-123726100D02*
X115760600Y-122456100D01*
X114490600Y-132933600D02*
X114490600Y-123726100D01*
G04 #@! TO.N,N$3*
X111950600Y-145951100D02*
X111950600Y-138648600D01*
X115125600Y-125313600D02*
X115760600Y-124678600D01*
X106553100Y-137378600D02*
X106553100Y-134521100D01*
X111633100Y-138331100D02*
X111696600Y-138560100D01*
X110680600Y-137378600D02*
X106553100Y-137378600D01*
X111950600Y-138648600D02*
X111696600Y-138560100D01*
X115760600Y-124678600D02*
X120523100Y-124678600D01*
X111633100Y-138331100D02*
X110680600Y-137378600D01*
X120840600Y-124361100D02*
X120942200Y-124361100D01*
X120523100Y-124678600D02*
X120840600Y-124361100D01*
X106553100Y-134521100D02*
X107505600Y-133568600D01*
X115125600Y-133568600D02*
X115125600Y-125313600D01*
X107505600Y-133568600D02*
X115125600Y-133568600D01*
X111950600Y-145951100D02*
X111696600Y-145951100D01*
G04 #@! TO.N,N$5*
X120523100Y-125313600D02*
X120840600Y-125631100D01*
X115760600Y-134203600D02*
X115760600Y-125313600D01*
X115125600Y-145951100D02*
X115125600Y-138560100D01*
X113538100Y-136743600D02*
X107188100Y-136743600D01*
X107188100Y-136743600D02*
X107188100Y-134521100D01*
X115125600Y-138331100D02*
X113538100Y-136743600D01*
X115125600Y-138331100D02*
X115125600Y-138560100D01*
X107505600Y-134203600D02*
X115760600Y-134203600D01*
X107188100Y-134521100D02*
X107505600Y-134203600D01*
X120840600Y-125631100D02*
X120942200Y-125631100D01*
X115760600Y-125313600D02*
X120523100Y-125313600D01*
G04 #@! TO.N,N$7*
X119253100Y-127536100D02*
X120205600Y-127536100D01*
X120840600Y-126901100D02*
X120942200Y-126901100D01*
X118935600Y-145951100D02*
X118935600Y-138648600D01*
X120205600Y-127536100D02*
X120840600Y-126901100D01*
X118935600Y-138648600D02*
X118681600Y-138560100D01*
X118935600Y-145951100D02*
X118681600Y-145951100D01*
G04 #@! TO.N,N$9*
X122110600Y-145951100D02*
X122110600Y-138560100D01*
X126238100Y-127536100D02*
X126873100Y-126901100D01*
X126873100Y-126901100D02*
X127089000Y-126901100D01*
X123380600Y-127536100D02*
X126238100Y-127536100D01*
G04 #@! TO.N,N$11*
X125920600Y-138648600D02*
X125666600Y-138560100D01*
X126873100Y-125631100D02*
X127089000Y-125631100D01*
X125603100Y-126266100D02*
X126238100Y-126266100D01*
X126238100Y-126266100D02*
X126873100Y-125631100D01*
X125920600Y-145951100D02*
X125666600Y-145951100D01*
X125920600Y-145951100D02*
X125920600Y-138648600D01*
G04 #@! TO.N,N$13*
X129095600Y-145951100D02*
X129095600Y-138560100D01*
X127190600Y-124361100D02*
X127089000Y-124361100D01*
X127825600Y-124996100D02*
X127190600Y-124361100D01*
X128778100Y-124996100D02*
X127825600Y-124996100D01*
G04 #@! TO.N,N$15*
X118300600Y-121821100D02*
X118935600Y-122456100D01*
X122745600Y-123091100D02*
X127089000Y-123091100D01*
X115760600Y-121821100D02*
X118300600Y-121821100D01*
X107505600Y-132933600D02*
X108775600Y-132933600D01*
X132905600Y-145951100D02*
X132651600Y-145951100D01*
X122110600Y-122456100D02*
X122745600Y-123091100D01*
X132588100Y-145951100D02*
X132651600Y-145951100D01*
X132905600Y-145951100D02*
X132905600Y-138648600D01*
X105918100Y-147221100D02*
X105918100Y-134521100D01*
X132588100Y-145951100D02*
X131318100Y-147221100D01*
X108775600Y-132933600D02*
X108775600Y-128806100D01*
X118935600Y-122456100D02*
X122110600Y-122456100D01*
X105918100Y-134521100D02*
X107505600Y-132933600D01*
X131318100Y-147221100D02*
X105918100Y-147221100D01*
X108775600Y-128806100D02*
X115760600Y-121821100D01*
X132905600Y-138648600D02*
X132651600Y-138560100D01*
G04 #@! TO.N,N$19*
X144335600Y-126266100D02*
X144970600Y-125631100D01*
X136080600Y-145951100D02*
X136080600Y-138560100D01*
X140843100Y-128806100D02*
X143383100Y-126266100D01*
X144970600Y-125631100D02*
X145072200Y-125631100D01*
X143383100Y-126266100D02*
X144335600Y-126266100D01*
G04 #@! TO.N,N$21*
X144335600Y-127536100D02*
X144970600Y-126901100D01*
X139890600Y-138648600D02*
X139636600Y-138560100D01*
X143065600Y-127536100D02*
X144335600Y-127536100D01*
X141795600Y-128806100D02*
X143065600Y-127536100D01*
X139890600Y-145951100D02*
X139636600Y-145951100D01*
X139890600Y-145951100D02*
X139890600Y-138648600D01*
X144970600Y-126901100D02*
X145072200Y-126901100D01*
G04 #@! TO.N,N$23*
X143065600Y-145951100D02*
X143065600Y-138560100D01*
X143383100Y-128171100D02*
X145072200Y-128171100D01*
G04 #@! TO.N,N$25*
X146875600Y-129441100D02*
X145072200Y-129441100D01*
X146875600Y-138648600D02*
X146621600Y-138560100D01*
X146875600Y-145951100D02*
X146621600Y-145951100D01*
X146875600Y-145951100D02*
X146875600Y-138648600D01*
G04 #@! TO.N,N$27*
X149415600Y-129441100D02*
X151219000Y-129441100D01*
X150050600Y-145951100D02*
X150050600Y-138560100D01*
G04 #@! TO.N,N$29*
X153860600Y-145951100D02*
X153606600Y-145951100D01*
X152908100Y-128806100D02*
X151955600Y-128806100D01*
X151320600Y-128171100D02*
X151219000Y-128171100D01*
X151955600Y-128806100D02*
X151320600Y-128171100D01*
X153860600Y-138648600D02*
X153606600Y-138560100D01*
X153860600Y-145951100D02*
X153860600Y-138648600D01*
G04 #@! TO.N,N$31*
X151955600Y-127536100D02*
X151320600Y-126901100D01*
X156400600Y-131346100D02*
X152590600Y-127536100D01*
X152590600Y-127536100D02*
X151955600Y-127536100D01*
X157035600Y-145951100D02*
X157035600Y-138560100D01*
X151320600Y-126901100D02*
X151219000Y-126901100D01*
G04 #@! TO.N,N$33*
X151320600Y-125631100D02*
X151219000Y-125631100D01*
X160845600Y-145951100D02*
X160845600Y-138648600D01*
X151955600Y-126266100D02*
X151320600Y-125631100D01*
X157670600Y-131346100D02*
X152590600Y-126266100D01*
X152590600Y-126266100D02*
X151955600Y-126266100D01*
X160845600Y-138648600D02*
X160591600Y-138560100D01*
X160845600Y-145951100D02*
X160591600Y-145951100D01*
G04 #@! TO.N,N$35*
X172275600Y-123726100D02*
X172910600Y-123091100D01*
X164020600Y-145951100D02*
X164020600Y-138560100D01*
X161163100Y-131346100D02*
X167830600Y-124678600D01*
X170370600Y-124678600D02*
X171323100Y-123726100D01*
X172910600Y-123091100D02*
X173012200Y-123091100D01*
X171323100Y-123726100D02*
X172275600Y-123726100D01*
X167830600Y-124678600D02*
X170370600Y-124678600D01*
G04 #@! TO.N,N$37*
X170370600Y-125313600D02*
X170688100Y-124996100D01*
X172275600Y-124996100D02*
X172910600Y-124361100D01*
X167830600Y-138648600D02*
X167576600Y-138560100D01*
X167830600Y-125313600D02*
X170370600Y-125313600D01*
X166878100Y-131346100D02*
X166878100Y-126266100D01*
X172910600Y-124361100D02*
X173012200Y-124361100D01*
X170688100Y-124996100D02*
X172275600Y-124996100D01*
X166878100Y-126266100D02*
X167830600Y-125313600D01*
X167830600Y-145951100D02*
X167830600Y-138648600D01*
X167830600Y-145951100D02*
X167576600Y-145951100D01*
G04 #@! TO.N,N$39*
X171323100Y-126266100D02*
X172275600Y-126266100D01*
X172910600Y-125631100D02*
X173012200Y-125631100D01*
X172275600Y-126266100D02*
X172910600Y-125631100D01*
X171005600Y-145951100D02*
X171005600Y-138560100D01*
G04 #@! TO.N,N$41*
X173228100Y-126901100D02*
X173012200Y-126901100D01*
X173545600Y-127218600D02*
X173228100Y-126901100D01*
X174815600Y-145951100D02*
X174561600Y-145951100D01*
X174815600Y-127218600D02*
X173545600Y-127218600D01*
X174815600Y-138648600D02*
X174561600Y-138560100D01*
X174815600Y-145951100D02*
X174815600Y-138648600D01*
G04 #@! TO.N,N$43*
X179260600Y-126901100D02*
X179159000Y-126901100D01*
X177990600Y-145951100D02*
X177990600Y-138560100D01*
X180530600Y-134521100D02*
X180530600Y-127536100D01*
X179895600Y-127536100D02*
X179260600Y-126901100D01*
X180213100Y-134521100D02*
X180530600Y-134521100D01*
X180530600Y-127536100D02*
X179895600Y-127536100D01*
G04 #@! TO.N,N$45*
X190690600Y-147221100D02*
X190690600Y-134521100D01*
X177673100Y-124678600D02*
X177990600Y-124996100D01*
X178943100Y-125631100D02*
X179159000Y-125631100D01*
X177673100Y-122456100D02*
X177673100Y-124678600D01*
X190690600Y-134521100D02*
X189103100Y-132933600D01*
X181800600Y-145951100D02*
X181546600Y-145951100D01*
X178308100Y-124996100D02*
X178943100Y-125631100D01*
X181800600Y-145951100D02*
X183070600Y-147221100D01*
X183070600Y-147221100D02*
X190690600Y-147221100D01*
X181800600Y-145951100D02*
X181800600Y-138648600D01*
X180530600Y-122456100D02*
X177673100Y-122456100D01*
X177990600Y-124996100D02*
X178308100Y-124996100D01*
X181800600Y-138648600D02*
X181546600Y-138560100D01*
X189103100Y-132933600D02*
X187515600Y-132933600D01*
X187515600Y-132933600D02*
X187515600Y-129441100D01*
X187515600Y-129441100D02*
X180530600Y-122456100D01*
G04 #@! TO.N,N$47*
X179895600Y-124996100D02*
X179260600Y-124361100D01*
X189103100Y-134203600D02*
X186245600Y-134203600D01*
X184975600Y-138331100D02*
X185928100Y-137378600D01*
X184975600Y-145951100D02*
X184975600Y-138560100D01*
X186245600Y-134203600D02*
X186245600Y-130711100D01*
X179260600Y-124361100D02*
X179159000Y-124361100D01*
X180530600Y-124996100D02*
X179895600Y-124996100D01*
X186245600Y-130711100D02*
X180530600Y-124996100D01*
X184975600Y-138331100D02*
X184975600Y-138560100D01*
X189420600Y-137378600D02*
X189420600Y-134521100D01*
X185928100Y-137378600D02*
X189420600Y-137378600D01*
X189420600Y-134521100D02*
X189103100Y-134203600D01*
G04 #@! TO.N,N$57*
X186880600Y-133568600D02*
X186880600Y-130076100D01*
X188785600Y-138648600D02*
X188531600Y-138560100D01*
X190055600Y-134521100D02*
X189103100Y-133568600D01*
X190055600Y-138331100D02*
X190055600Y-134521100D01*
X189103100Y-133568600D02*
X186880600Y-133568600D01*
X188785600Y-145951100D02*
X188531600Y-145951100D01*
X179895600Y-123726100D02*
X179260600Y-123091100D01*
X180530600Y-123726100D02*
X179895600Y-123726100D01*
X188785600Y-145951100D02*
X188785600Y-138648600D01*
X186880600Y-130076100D02*
X180530600Y-123726100D01*
X179260600Y-123091100D02*
X179159000Y-123091100D01*
X188785600Y-138331100D02*
X190055600Y-138331100D01*
X188785600Y-138331100D02*
X188531600Y-138560100D01*
G04 #@! TO.N,D9*
X170370600Y-128806100D02*
X167195600Y-131981100D01*
X178943100Y-129441100D02*
X178308100Y-128806100D01*
X154495600Y-131981100D02*
X151219000Y-131981100D01*
X149098100Y-130076100D02*
X147828100Y-128806100D01*
X143065600Y-129441100D02*
X127089000Y-129441100D01*
X167195600Y-131981100D02*
X154495600Y-131981100D01*
X146558100Y-128806100D02*
X146558100Y-124996100D01*
X147828100Y-128806100D02*
X146558100Y-128806100D01*
X143700600Y-128806100D02*
X143065600Y-129441100D01*
X154495600Y-131981100D02*
X152590600Y-130076100D01*
X178943100Y-129441100D02*
X179159000Y-129441100D01*
X152590600Y-130076100D02*
X149098100Y-130076100D01*
X178308100Y-128806100D02*
X170370600Y-128806100D01*
X146558100Y-128806100D02*
X143700600Y-128806100D01*
G04 #@! TO.N,D12*
X136715600Y-119916100D02*
X121793100Y-119916100D01*
X121158100Y-120551100D02*
X120942200Y-120551100D01*
X121793100Y-119916100D02*
X121158100Y-120551100D01*
G04 #@! TO.N,D13*
X155765600Y-121186100D02*
X151320600Y-121186100D01*
X131953100Y-128171100D02*
X127089000Y-128171100D01*
X174498100Y-124043600D02*
X177990600Y-127536100D01*
X142113100Y-125313600D02*
X134810600Y-125313600D01*
X151219000Y-130711100D02*
X149098100Y-130711100D01*
X149098100Y-130711100D02*
X148463100Y-130076100D01*
X126238100Y-128806100D02*
X126873100Y-128171100D01*
X148780600Y-123726100D02*
X143700600Y-123726100D01*
X148463100Y-130076100D02*
X125603100Y-130076100D01*
X178308100Y-127536100D02*
X178943100Y-128171100D01*
X125920600Y-128806100D02*
X126238100Y-128806100D01*
X151320600Y-121186100D02*
X148780600Y-123726100D01*
X126873100Y-128171100D02*
X127089000Y-128171100D01*
X143700600Y-123726100D02*
X142113100Y-125313600D01*
X157035600Y-119916100D02*
X174498100Y-119916100D01*
X178943100Y-128171100D02*
X179159000Y-128171100D01*
X155765600Y-121186100D02*
X157035600Y-119916100D01*
X177990600Y-127536100D02*
X178308100Y-127536100D01*
X134810600Y-125313600D02*
X131953100Y-128171100D01*
X125603100Y-129123600D02*
X125920600Y-128806100D01*
X174498100Y-119916100D02*
X174498100Y-124043600D01*
X125603100Y-130076100D02*
X125603100Y-129123600D01*
D22*
G04 #@! TO.N,A*
X167830600Y-73561100D02*
X167830600Y-75406100D01*
X171259600Y-67211100D02*
X174815600Y-67211100D01*
D23*
G04 #@! TO.N,D2*
X166560600Y-80606100D02*
X166560600Y-84356100D01*
X166560600Y-84356100D02*
X164020600Y-86896100D01*
X166560600Y-80546100D02*
X166560600Y-80606100D01*
X167830600Y-80546100D02*
X167830600Y-80606100D01*
X164020600Y-86896100D02*
X162750600Y-86896100D01*
X159893100Y-89753600D02*
X146558100Y-89753600D01*
X162750600Y-86896100D02*
X159893100Y-89753600D01*
X167830600Y-80546100D02*
X166560600Y-80546100D01*
X146558100Y-89753600D02*
X143383100Y-92928600D01*
G04 #@! TO.N,TX*
X169100600Y-80606100D02*
X169100600Y-79911100D01*
X169100600Y-79911100D02*
X168148100Y-78958600D01*
X169100600Y-80606100D02*
X169100600Y-81181100D01*
X168148100Y-78958600D02*
X164655600Y-78958600D01*
X169100600Y-81181100D02*
X168148100Y-82133600D01*
X168148100Y-82133600D02*
X167195600Y-82133600D01*
X167195600Y-82133600D02*
X167195600Y-86146100D01*
X143700600Y-82451100D02*
X140525600Y-85626100D01*
X164655600Y-78958600D02*
X161163100Y-82451100D01*
X161163100Y-82451100D02*
X143700600Y-82451100D01*
G04 #@! TO.N,RX*
X163385600Y-84673600D02*
X144018100Y-84673600D01*
X165290600Y-80863600D02*
X165290600Y-80606100D01*
X163385600Y-80863600D02*
X163385600Y-84673600D01*
X163385600Y-84673600D02*
X163385600Y-86146100D01*
X144018100Y-84673600D02*
X140525600Y-88166100D01*
X165290600Y-80863600D02*
X163385600Y-80863600D01*
G04 #@! TO.N,N$2*
X150050600Y-123726100D02*
X149415600Y-124361100D01*
X149415600Y-124361100D02*
X145072200Y-124361100D01*
X173012200Y-120551100D02*
X169735600Y-120551100D01*
X169735600Y-120551100D02*
X166560600Y-123726100D01*
X166560600Y-123726100D02*
X150050600Y-123726100D01*
G04 #@! TO.N,N$4*
X120942200Y-121821100D02*
X122110600Y-121821100D01*
X138938100Y-123091100D02*
X145072200Y-123091100D01*
X137350600Y-124678600D02*
X138938100Y-123091100D01*
X130683100Y-124678600D02*
X137350600Y-124678600D01*
X128460600Y-122456100D02*
X130683100Y-124678600D01*
X122745600Y-122456100D02*
X128460600Y-122456100D01*
X122110600Y-121821100D02*
X122745600Y-122456100D01*
G04 #@! TO.N,N$6*
X131635600Y-92611100D02*
X131953100Y-92928600D01*
X125920600Y-90706100D02*
X127508100Y-89118600D01*
X133540600Y-106581100D02*
X132270600Y-107851100D01*
X132270600Y-107851100D02*
X132270600Y-107952700D01*
X131953100Y-92928600D02*
X132905600Y-92928600D01*
X131635600Y-89118600D02*
X131635600Y-92611100D01*
X125920600Y-91442700D02*
X125920600Y-90706100D01*
X127508100Y-89118600D02*
X131635600Y-89118600D01*
G04 #@! TO.N,N$8*
X195770600Y-72608600D02*
X181800600Y-86578600D01*
X161480600Y-74831100D02*
X171005600Y-65306100D01*
X156400600Y-74831100D02*
X156400600Y-74932700D01*
X156400600Y-74831100D02*
X161480600Y-74831100D01*
X171005600Y-65306100D02*
X195770600Y-65306100D01*
X195770600Y-65306100D02*
X195770600Y-72608600D01*
X181800600Y-86578600D02*
X170370600Y-86578600D01*
X170370600Y-86578600D02*
X170370600Y-91442700D01*
G04 #@! TO.N,N$10*
X132270600Y-75466100D02*
X131318100Y-76418600D01*
X132270600Y-83086100D02*
X132270600Y-91442700D01*
X129095600Y-83086100D02*
X132270600Y-83086100D01*
X127825600Y-73561100D02*
X127825600Y-81816100D01*
X130365600Y-76418600D02*
X130365600Y-73561100D01*
X132270600Y-74932700D02*
X132270600Y-75466100D01*
X130365600Y-73561100D02*
X127825600Y-73561100D01*
X127825600Y-81816100D02*
X129095600Y-83086100D01*
X131318100Y-76418600D02*
X130365600Y-76418600D01*
G04 #@! TO.N,N$12*
X176720600Y-91658600D02*
X176403100Y-91658600D01*
X170370600Y-105946100D02*
X170370600Y-107952700D01*
X176720600Y-91658600D02*
X176720600Y-91442700D01*
X176403100Y-91658600D02*
X176403100Y-94198600D01*
G04 #@! TO.N,N$14*
X107505600Y-130076100D02*
X105600600Y-130076100D01*
X105600600Y-112613600D02*
X111633100Y-106581100D01*
X111633100Y-106581100D02*
X124650600Y-106581100D01*
X124650600Y-106581100D02*
X124650600Y-107952700D01*
X105600600Y-130076100D02*
X105600600Y-112613600D01*
G04 #@! TO.N,N$16*
X123380600Y-114201100D02*
X123380600Y-114099500D01*
X115443100Y-118011100D02*
X119570600Y-118011100D01*
X119570600Y-118011100D02*
X123380600Y-114201100D01*
G04 #@! TO.N,N$18*
X108140600Y-118646100D02*
X124650600Y-118646100D01*
X107505600Y-123091100D02*
X106235600Y-123091100D01*
X107188100Y-118328600D02*
X107823100Y-118328600D01*
X124650600Y-118646100D02*
X124650600Y-114099500D01*
X106235600Y-123091100D02*
X106235600Y-119281100D01*
X107823100Y-118328600D02*
X108140600Y-118646100D01*
X106235600Y-119281100D02*
X107188100Y-118328600D01*
G04 #@! TO.N,N$20*
X107505600Y-119281100D02*
X107505600Y-119535100D01*
X107505600Y-119281100D02*
X125920600Y-119281100D01*
X125920600Y-119281100D02*
X125920600Y-114099500D01*
G04 #@! TO.N,N$22*
X118300600Y-116106100D02*
X122428100Y-111978600D01*
X127190600Y-111978600D02*
X127190600Y-114099500D01*
X122428100Y-111978600D02*
X127190600Y-111978600D01*
X107505600Y-116106100D02*
X118300600Y-116106100D01*
G04 #@! TO.N,N$24*
X122745600Y-112613600D02*
X126555600Y-112613600D01*
X107505600Y-112613600D02*
X106235600Y-112613600D01*
X126555600Y-115471100D02*
X128460600Y-115471100D01*
X117983100Y-117376100D02*
X122745600Y-112613600D01*
X106235600Y-112613600D02*
X106235600Y-116423600D01*
X107505600Y-112613600D02*
X107505600Y-112550100D01*
X106235600Y-116423600D02*
X107188100Y-117376100D01*
X128460600Y-115471100D02*
X128460600Y-114099500D01*
X126555600Y-112613600D02*
X126555600Y-115471100D01*
X107188100Y-117376100D02*
X117983100Y-117376100D01*
G04 #@! TO.N,N$26*
X129730600Y-111343600D02*
X129730600Y-114099500D01*
X121158100Y-112296100D02*
X122110600Y-111343600D01*
X122110600Y-111343600D02*
X129730600Y-111343600D01*
G04 #@! TO.N,N$28*
X131000600Y-111661100D02*
X131000600Y-114099500D01*
X130683100Y-111661100D02*
X131000600Y-111661100D01*
X125285600Y-105311100D02*
X125285600Y-106263600D01*
X107505600Y-105311100D02*
X107505600Y-105565100D01*
X107505600Y-105311100D02*
X125285600Y-105311100D01*
G04 #@! TO.N,N$30*
X107823100Y-89436100D02*
X124650600Y-89436100D01*
X105600600Y-91658600D02*
X107823100Y-89436100D01*
X105600600Y-102136100D02*
X105600600Y-91658600D01*
X107505600Y-102136100D02*
X105600600Y-102136100D01*
X124650600Y-89436100D02*
X124650600Y-91442700D01*
G04 #@! TO.N,N$32*
X107505600Y-98326100D02*
X122745600Y-98326100D01*
X123380600Y-97691100D02*
X123380600Y-97589500D01*
X107505600Y-98326100D02*
X107505600Y-98580100D01*
X122745600Y-98326100D02*
X123380600Y-97691100D01*
G04 #@! TO.N,N$34*
X124650600Y-96103600D02*
X124650600Y-97589500D01*
X109410600Y-97056100D02*
X120840600Y-97056100D01*
X121793100Y-96103600D02*
X124650600Y-96103600D01*
X107505600Y-95151100D02*
X109410600Y-97056100D01*
X120840600Y-97056100D02*
X121793100Y-96103600D01*
G04 #@! TO.N,N$36*
X106870600Y-99596100D02*
X125920600Y-99596100D01*
X125920600Y-99596100D02*
X125920600Y-97589500D01*
X106235600Y-98961100D02*
X106870600Y-99596100D01*
X107505600Y-91658600D02*
X107505600Y-91595100D01*
X106235600Y-91658600D02*
X106235600Y-98961100D01*
X107505600Y-91658600D02*
X106235600Y-91658600D01*
G04 #@! TO.N,N$38*
X118935600Y-100231100D02*
X127190600Y-100231100D01*
X127190600Y-100231100D02*
X127190600Y-97589500D01*
G04 #@! TO.N,N$40*
X124968100Y-92928600D02*
X124015600Y-92928600D01*
X125285600Y-85943600D02*
X125285600Y-92611100D01*
X124015600Y-90071100D02*
X118300600Y-90071100D01*
X125285600Y-92611100D02*
X124968100Y-92928600D01*
X107505600Y-84673600D02*
X108775600Y-85943600D01*
X118300600Y-90071100D02*
X118300600Y-94198600D01*
X108775600Y-85943600D02*
X125285600Y-85943600D01*
X118300600Y-94198600D02*
X118618100Y-94516100D01*
X107505600Y-84673600D02*
X107505600Y-84610100D01*
X124015600Y-92928600D02*
X124015600Y-90071100D01*
X118618100Y-94516100D02*
X128460600Y-94516100D01*
X128460600Y-94516100D02*
X128460600Y-97589500D01*
G04 #@! TO.N,N$42*
X104330600Y-76418600D02*
X104330600Y-102136100D01*
X104330600Y-102136100D02*
X106235600Y-104041100D01*
X131635600Y-96421100D02*
X131318100Y-96103600D01*
X108775600Y-77371100D02*
X107823100Y-76418600D01*
X131635600Y-104041100D02*
X131635600Y-96421100D01*
X129730600Y-96103600D02*
X129730600Y-97589500D01*
X107823100Y-76418600D02*
X104330600Y-76418600D01*
X131318100Y-96103600D02*
X129730600Y-96103600D01*
X106235600Y-104041100D02*
X131635600Y-104041100D01*
X107505600Y-81181100D02*
X108775600Y-81181100D01*
X108775600Y-81181100D02*
X108775600Y-77371100D01*
G04 #@! TO.N,N$44*
X107505600Y-77688600D02*
X104965600Y-77688600D01*
X104965600Y-102136100D02*
X106235600Y-103406100D01*
X106235600Y-103406100D02*
X131000600Y-103406100D01*
X104965600Y-77688600D02*
X104965600Y-102136100D01*
X107505600Y-77688600D02*
X107505600Y-77625100D01*
X131000600Y-103406100D02*
X131000600Y-97589500D01*
G04 #@! TO.N,N$46*
X108458100Y-65623600D02*
X131000600Y-65623600D01*
X106743600Y-63909100D02*
X108458100Y-65623600D01*
X131000600Y-65623600D02*
X131000600Y-74932700D01*
G04 #@! TO.N,N$48*
X129095600Y-79593600D02*
X129730600Y-79593600D01*
X129730600Y-79593600D02*
X129730600Y-81079500D01*
G04 #@! TO.N,N$49*
X129730600Y-78958600D02*
X131000600Y-78958600D01*
X131000600Y-78958600D02*
X131000600Y-81079500D01*
G04 #@! TO.N,N$50*
X131635600Y-79276100D02*
X132270600Y-79276100D01*
X132270600Y-79276100D02*
X132270600Y-81079500D01*
G04 #@! TO.N,N$52*
X133540600Y-78641100D02*
X133540600Y-81079500D01*
X132270600Y-78641100D02*
X133540600Y-78641100D01*
G04 #@! TO.N,N$53*
X124333100Y-64036100D02*
X124269600Y-63909100D01*
X125285600Y-64988600D02*
X132905600Y-64988600D01*
X124333100Y-64036100D02*
X125285600Y-64988600D01*
X132905600Y-76101100D02*
X133540600Y-76736100D01*
X132905600Y-64988600D02*
X132905600Y-76101100D01*
X134810600Y-78641100D02*
X134810600Y-81079500D01*
G04 #@! TO.N,N$59*
X136080600Y-82451100D02*
X136080600Y-81079500D01*
X128460600Y-81816100D02*
X129095600Y-82451100D01*
X128460600Y-74196100D02*
X128460600Y-81816100D01*
X129095600Y-82451100D02*
X136080600Y-82451100D01*
G04 #@! TO.N,N$60*
X137350600Y-79276100D02*
X137350600Y-81079500D01*
G04 #@! TO.N,N$61*
X134683600Y-63909100D02*
X135763100Y-64988600D01*
X148780600Y-64988600D02*
X148780600Y-74932700D01*
X135763100Y-64988600D02*
X148780600Y-64988600D01*
G04 #@! TO.N,N$62*
X147510600Y-79276100D02*
X147510600Y-81079500D01*
G04 #@! TO.N,N$63*
X148780600Y-79276100D02*
X148780600Y-81079500D01*
G04 #@! TO.N,N$64*
X150050600Y-79276100D02*
X150050600Y-81079500D01*
G04 #@! TO.N,N$65*
X151320600Y-79276100D02*
X151320600Y-81079500D01*
G04 #@! TO.N,N$66*
X152590600Y-78958600D02*
X152590600Y-81079500D01*
X153225600Y-78958600D02*
X152590600Y-78958600D01*
G04 #@! TO.N,N$67*
X153860600Y-78006100D02*
X153860600Y-81079500D01*
X154178100Y-78006100D02*
X153860600Y-78006100D01*
G04 #@! TO.N,N$69*
X156400600Y-77688600D02*
X155130600Y-77688600D01*
X155130600Y-77688600D02*
X155130600Y-81079500D01*
G04 #@! TO.N,N$71*
X180848100Y-85943600D02*
X169100600Y-85943600D01*
X169100600Y-85943600D02*
X169100600Y-91442700D01*
X188785600Y-78006100D02*
X180848100Y-85943600D01*
G04 #@! TO.N,N$72*
X172275600Y-95468600D02*
X167830600Y-95468600D01*
X167830600Y-95468600D02*
X167830600Y-97589500D01*
G04 #@! TO.N,N$73*
X189103100Y-100231100D02*
X188468100Y-100231100D01*
X174815600Y-96103600D02*
X174815600Y-98961100D01*
X172275600Y-96421100D02*
X171958100Y-96103600D01*
X190055600Y-99278600D02*
X189103100Y-100231100D01*
X171958100Y-96103600D02*
X169100600Y-96103600D01*
X188785600Y-84991100D02*
X187515600Y-84991100D01*
X188468100Y-100231100D02*
X184340600Y-96103600D01*
X187515600Y-92293600D02*
X188468100Y-93246100D01*
X187515600Y-84991100D02*
X187515600Y-92293600D01*
X172275600Y-98961100D02*
X172275600Y-96421100D01*
X174815600Y-98961100D02*
X172275600Y-98961100D01*
X169100600Y-96103600D02*
X169100600Y-97589500D01*
X184340600Y-96103600D02*
X174815600Y-96103600D01*
X188468100Y-93246100D02*
X190055600Y-93246100D01*
X190055600Y-93246100D02*
X190055600Y-99278600D01*
G04 #@! TO.N,N$74*
X191325600Y-88801100D02*
X191325600Y-102136100D01*
X188785600Y-88801100D02*
X188785600Y-88547100D01*
X170370600Y-104358600D02*
X170370600Y-97589500D01*
X189103100Y-104358600D02*
X170370600Y-104358600D01*
X191325600Y-102136100D02*
X189103100Y-104358600D01*
X188785600Y-88801100D02*
X191325600Y-88801100D01*
G04 #@! TO.N,N$75*
X171640600Y-103406100D02*
X171640600Y-97589500D01*
X189103100Y-103723600D02*
X188468100Y-103723600D01*
X188150600Y-103406100D02*
X171640600Y-103406100D01*
X190690600Y-102136100D02*
X189103100Y-103723600D01*
X188785600Y-91976100D02*
X190690600Y-91976100D01*
X190690600Y-91976100D02*
X190690600Y-102136100D01*
X188468100Y-103723600D02*
X188150600Y-103406100D01*
G04 #@! TO.N,N$76*
X188785600Y-95468600D02*
X188785600Y-95532100D01*
X188785600Y-95468600D02*
X188150600Y-94833600D01*
X172910600Y-94833600D02*
X172910600Y-97589500D01*
X188150600Y-94833600D02*
X172910600Y-94833600D01*
G04 #@! TO.N,N$77*
X188785600Y-98961100D02*
X185293100Y-95468600D01*
X174180600Y-95468600D02*
X174180600Y-97589500D01*
X185293100Y-95468600D02*
X174180600Y-95468600D01*
G04 #@! TO.N,N$78*
X188785600Y-102453600D02*
X175450600Y-102453600D01*
X188785600Y-102453600D02*
X188785600Y-102517100D01*
X175450600Y-102453600D02*
X175450600Y-97589500D01*
G04 #@! TO.N,N$79*
X188785600Y-105946100D02*
X174815600Y-105946100D01*
X174498100Y-109438600D02*
X170053100Y-109438600D01*
X174815600Y-109121100D02*
X174498100Y-109438600D01*
X169100600Y-109121100D02*
X169100600Y-107952700D01*
X170053100Y-109438600D02*
X169735600Y-109121100D01*
X174815600Y-105946100D02*
X174815600Y-109121100D01*
X169735600Y-109121100D02*
X169100600Y-109121100D01*
G04 #@! TO.N,N$80*
X171005600Y-112613600D02*
X171005600Y-115471100D01*
X171005600Y-115471100D02*
X167830600Y-115471100D01*
X184023100Y-112613600D02*
X171005600Y-112613600D01*
X167830600Y-115471100D02*
X167830600Y-114099500D01*
G04 #@! TO.N,N$81*
X187198100Y-111343600D02*
X169100600Y-111343600D01*
X169100600Y-111343600D02*
X169100600Y-114099500D01*
X188785600Y-112931100D02*
X187198100Y-111343600D01*
G04 #@! TO.N,N$82*
X184340600Y-111978600D02*
X170370600Y-111978600D01*
X170370600Y-111978600D02*
X170370600Y-114099500D01*
X188785600Y-116423600D02*
X188785600Y-116487100D01*
X188785600Y-116423600D02*
X184340600Y-111978600D01*
G04 #@! TO.N,N$83*
X188150600Y-119281100D02*
X171640600Y-119281100D01*
X188785600Y-119916100D02*
X188150600Y-119281100D01*
X171640600Y-119281100D02*
X171640600Y-114099500D01*
G04 #@! TO.N,N$84*
X172910600Y-118646100D02*
X172910600Y-114099500D01*
X184023100Y-118646100D02*
X172910600Y-118646100D01*
G04 #@! TO.N,N$85*
X190055600Y-119598600D02*
X189103100Y-118646100D01*
X188785600Y-118646100D02*
X188150600Y-118011100D01*
X188785600Y-126901100D02*
X190055600Y-126901100D01*
X174180600Y-118011100D02*
X174180600Y-114099500D01*
X189103100Y-118646100D02*
X188785600Y-118646100D01*
X188150600Y-118011100D02*
X174180600Y-118011100D01*
X190055600Y-126901100D02*
X190055600Y-119598600D01*
G04 #@! TO.N,N$86*
X175450600Y-117376100D02*
X175450600Y-114099500D01*
X189103100Y-118011100D02*
X188785600Y-118011100D01*
X188785600Y-130393600D02*
X188785600Y-130457100D01*
X190690600Y-130393600D02*
X190690600Y-119598600D01*
X188785600Y-118011100D02*
X188150600Y-117376100D01*
X190690600Y-119598600D02*
X189103100Y-118011100D01*
X188150600Y-117376100D02*
X175450600Y-117376100D01*
X188785600Y-130393600D02*
X190690600Y-130393600D01*
D22*
G04 #@! TO.N,B*
X167576600Y-67211100D02*
X164020600Y-67211100D01*
X166560600Y-73561100D02*
X166560600Y-75406100D01*
D23*
G04 #@! TO.N,D3*
X156718100Y-89118600D02*
X159575600Y-86261100D01*
X150368100Y-89118600D02*
X156718100Y-89118600D01*
X159575600Y-86261100D02*
X159575600Y-86146100D01*
G04 #@! TO.N,N$17*
X163385600Y-91658600D02*
X167195600Y-87848600D01*
X155765600Y-114836100D02*
X158940600Y-111661100D01*
X167195600Y-87848600D02*
X167195600Y-87646100D01*
X149644600Y-114836100D02*
X155765600Y-114836100D01*
G04 #@! TO.N,N$54*
X163385600Y-87848600D02*
X163385600Y-87646100D01*
X155765600Y-112296100D02*
X157353100Y-110708600D01*
X157988100Y-91023600D02*
X160210600Y-91023600D01*
X149644600Y-112296100D02*
X155765600Y-112296100D01*
X160210600Y-91023600D02*
X163385600Y-87848600D01*
G04 #@! TO.N,N$58*
X159575600Y-89118600D02*
X159575600Y-87646100D01*
X150685600Y-102136100D02*
X158623100Y-94198600D01*
X149644600Y-102136100D02*
X150685600Y-102136100D01*
G04 #@! TD*
M02*
