G04 #@! TF.GenerationSoftware,KiCad,Pcbnew,(6.0.9)*
G04 #@! TF.CreationDate,2023-02-21T15:57:59-05:00*
G04 #@! TF.ProjectId,Arduino-CMRI_SMD_v7_Nano,41726475-696e-46f2-9d43-4d52495f534d,rev?*
G04 #@! TF.SameCoordinates,Original*
G04 #@! TF.FileFunction,Soldermask,Bot*
G04 #@! TF.FilePolarity,Negative*
%FSLAX46Y46*%
G04 Gerber Fmt 4.6, Leading zero omitted, Abs format (unit mm)*
G04 Created by KiCad (PCBNEW (6.0.9)) date 2023-02-21 15:57:59*
%MOMM*%
%LPD*%
G01*
G04 APERTURE LIST*
%ADD10C,4.100000*%
%ADD11C,1.350000*%
%ADD12R,1.200000X1.200000*%
%ADD13C,1.200000*%
%ADD14C,1.790700*%
G04 APERTURE END LIST*
D10*
G04 #@! TO.C,*
X195580000Y-152400000D03*
G04 #@! TD*
G04 #@! TO.C,*
X101600000Y-152400000D03*
G04 #@! TD*
G04 #@! TO.C,H2*
X176085600Y-80546100D03*
G04 #@! TD*
D11*
G04 #@! TO.C,X15*
X148653600Y-63909100D03*
X152209600Y-63909100D03*
G04 #@! TD*
G04 #@! TO.C,X24*
X188785600Y-126901100D03*
X188785600Y-130457100D03*
G04 #@! TD*
G04 #@! TO.C,X11*
X120713600Y-63909100D03*
X124269600Y-63909100D03*
G04 #@! TD*
G04 #@! TO.C,X34*
X171005600Y-145951100D03*
X174561600Y-145951100D03*
G04 #@! TD*
G04 #@! TO.C,X1*
X107505600Y-130076100D03*
X107505600Y-126520100D03*
G04 #@! TD*
G04 #@! TO.C,X33*
X164020600Y-145951100D03*
X167576600Y-145951100D03*
G04 #@! TD*
G04 #@! TO.C,X40*
X164020600Y-67211100D03*
X167576600Y-67211100D03*
G04 #@! TD*
D12*
G04 #@! TO.C,ARDUINO_NANO1*
X155765600Y-121186100D03*
D13*
X155765600Y-118646100D03*
X155765600Y-116106100D03*
X155765600Y-113566100D03*
X155765600Y-111026100D03*
X155765600Y-108486100D03*
X155765600Y-105946100D03*
X155765600Y-103406100D03*
X155765600Y-100866100D03*
X155765600Y-98326100D03*
X155765600Y-95786100D03*
X155765600Y-93246100D03*
X155765600Y-90706100D03*
X155765600Y-88166100D03*
X155765600Y-85626100D03*
X140525600Y-85626100D03*
X140525600Y-88166100D03*
X140525600Y-90706100D03*
X140525600Y-93246100D03*
X140525600Y-95786100D03*
X140525600Y-98326100D03*
X140525600Y-100866100D03*
X140525600Y-103406100D03*
X140525600Y-105946100D03*
X140525600Y-108486100D03*
X140525600Y-111026100D03*
X140525600Y-113566100D03*
X140525600Y-116106100D03*
X140525600Y-118646100D03*
X140525600Y-121186100D03*
G04 #@! TD*
D11*
G04 #@! TO.C,X19*
X188785600Y-91976100D03*
X188785600Y-95532100D03*
G04 #@! TD*
G04 #@! TO.C,X39*
X171259600Y-67211100D03*
X174815600Y-67211100D03*
G04 #@! TD*
G04 #@! TO.C,X7*
X107505600Y-88166100D03*
X107505600Y-84610100D03*
G04 #@! TD*
G04 #@! TO.C,X31*
X150050600Y-145951100D03*
X153606600Y-145951100D03*
G04 #@! TD*
G04 #@! TO.C,X16*
X155638600Y-63909100D03*
X159194600Y-63909100D03*
G04 #@! TD*
G04 #@! TO.C,X28*
X129095600Y-145951100D03*
X132651600Y-145951100D03*
G04 #@! TD*
G04 #@! TO.C,X9*
X106743600Y-63909100D03*
X110299600Y-63909100D03*
G04 #@! TD*
G04 #@! TO.C,X5*
X107505600Y-102136100D03*
X107505600Y-98580100D03*
G04 #@! TD*
G04 #@! TO.C,X25*
X108140600Y-145951100D03*
X111696600Y-145951100D03*
G04 #@! TD*
G04 #@! TO.C,X6*
X107505600Y-95151100D03*
X107505600Y-91595100D03*
G04 #@! TD*
G04 #@! TO.C,X23*
X188785600Y-119916100D03*
X188785600Y-123472100D03*
G04 #@! TD*
G04 #@! TO.C,X18*
X188785600Y-84991100D03*
X188785600Y-88547100D03*
G04 #@! TD*
G04 #@! TO.C,X3*
X107505600Y-116106100D03*
X107505600Y-112550100D03*
G04 #@! TD*
G04 #@! TO.C,X8*
X107505600Y-81181100D03*
X107505600Y-77625100D03*
G04 #@! TD*
G04 #@! TO.C,X29*
X136080600Y-145951100D03*
X139636600Y-145951100D03*
G04 #@! TD*
G04 #@! TO.C,X14*
X141668600Y-63909100D03*
X145224600Y-63909100D03*
G04 #@! TD*
G04 #@! TO.C,X22*
X188785600Y-112931100D03*
X188785600Y-116487100D03*
G04 #@! TD*
G04 #@! TO.C,X35*
X177990600Y-145951100D03*
X181546600Y-145951100D03*
G04 #@! TD*
G04 #@! TO.C,X21*
X188785600Y-105946100D03*
X188785600Y-109502100D03*
G04 #@! TD*
G04 #@! TO.C,X2*
X107505600Y-123091100D03*
X107505600Y-119535100D03*
G04 #@! TD*
G04 #@! TO.C,X30*
X143065600Y-145951100D03*
X146621600Y-145951100D03*
G04 #@! TD*
G04 #@! TO.C,X20*
X188785600Y-98961100D03*
X188785600Y-102517100D03*
G04 #@! TD*
G04 #@! TO.C,X27*
X122110600Y-145951100D03*
X125666600Y-145951100D03*
G04 #@! TD*
G04 #@! TO.C,X32*
X157035600Y-145951100D03*
X160591600Y-145951100D03*
G04 #@! TD*
D14*
G04 #@! TO.C,X38*
X184340600Y-66576100D03*
X179260600Y-66576100D03*
G04 #@! TD*
G04 #@! TO.C,X37*
X194500600Y-66576100D03*
X189420600Y-66576100D03*
G04 #@! TD*
D11*
G04 #@! TO.C,X10*
X113728600Y-63909100D03*
X117284600Y-63909100D03*
G04 #@! TD*
G04 #@! TO.C,X12*
X127698600Y-63909100D03*
X131254600Y-63909100D03*
G04 #@! TD*
G04 #@! TO.C,X13*
X134683600Y-63909100D03*
X138239600Y-63909100D03*
G04 #@! TD*
G04 #@! TO.C,X36*
X184975600Y-145951100D03*
X188531600Y-145951100D03*
G04 #@! TD*
G04 #@! TO.C,X17*
X188785600Y-78006100D03*
X188785600Y-81562100D03*
G04 #@! TD*
G04 #@! TO.C,X26*
X115125600Y-145951100D03*
X118681600Y-145951100D03*
G04 #@! TD*
D10*
G04 #@! TO.C,H1*
X121475600Y-80546100D03*
G04 #@! TD*
D11*
G04 #@! TO.C,X4*
X107505600Y-109121100D03*
X107505600Y-105565100D03*
G04 #@! TD*
M02*
